M48
; DRILL file {KiCad 9.0.7} date 2026-02-02T16:46:08-0300
; FORMAT={-:-/ absolute / metric / decimal}
; #@! TF.CreationDate,2026-02-02T16:46:08-03:00
; #@! TF.GenerationSoftware,Kicad,Pcbnew,9.0.7
; #@! TF.FileFunction,Plated,1,2,PTH
FMAT,2
METRIC
; #@! TA.AperFunction,Plated,PTH,ViaDrill
T1C0.400
; #@! TA.AperFunction,Plated,PTH,ComponentDrill
T2C0.800
; #@! TA.AperFunction,Plated,PTH,ComponentDrill
T3C1.100
; #@! TA.AperFunction,Plated,PTH,ComponentDrill
T4C1.200
; #@! TA.AperFunction,Plated,PTH,ComponentDrill
T5C1.300
; #@! TA.AperFunction,Plated,PTH,ComponentDrill
T6C1.520
%
G90
G05
T1
X66.04Y-60.96
X66.04Y-66.04
X130.81Y-110.49
X151.13Y-104.14
T2
X71.12Y-58.42
X71.12Y-68.58
X71.12Y-99.06
X71.12Y-106.68
X71.12Y-116.84
X76.2Y-83.82
X78.74Y-61.0
X78.74Y-63.5
X81.28Y-99.06
X81.28Y-106.68
X81.28Y-116.84
X83.82Y-57.15
X85.075Y-64.78
X85.075Y-67.32
X85.075Y-69.86
X85.075Y-72.4
X86.36Y-83.82
X88.9Y-78.74
X88.9Y-109.22
X90.155Y-92.72
X90.155Y-95.26
X90.155Y-97.8
X90.155Y-100.34
X92.695Y-64.78
X92.695Y-67.32
X92.695Y-69.86
X92.695Y-72.4
X93.98Y-57.15
X96.52Y-78.74
X96.52Y-81.28
X96.52Y-83.82
X97.775Y-92.72
X97.775Y-95.26
X97.775Y-97.8
X97.775Y-100.34
X99.06Y-57.15
X99.06Y-67.31
X99.06Y-109.22
X100.33Y-104.14
X105.41Y-109.22
X105.41Y-119.38
X109.22Y-78.74
X109.22Y-87.32
X109.22Y-96.52
X110.49Y-71.12
X110.49Y-104.14
X114.3Y-105.41
X119.38Y-78.74
X119.38Y-87.32
X119.38Y-96.52
X120.65Y-71.12
X121.92Y-62.23
X124.46Y-105.41
X125.715Y-67.32
X125.715Y-69.86
X125.715Y-72.4
X125.715Y-74.94
X125.715Y-92.72
X125.715Y-95.26
X125.715Y-97.8
X125.715Y-100.34
X125.73Y-114.3
X132.08Y-62.23
X133.335Y-67.32
X133.335Y-69.86
X133.335Y-72.4
X133.335Y-74.94
X133.335Y-92.72
X133.335Y-95.26
X133.335Y-97.8
X133.335Y-100.34
X135.89Y-109.22
X135.89Y-114.3
X139.69Y-113.015
X139.69Y-120.635
X142.23Y-113.015
X142.23Y-120.635
X143.51Y-72.39
X143.51Y-97.79
X144.77Y-113.015
X144.77Y-120.635
X146.05Y-109.22
X147.31Y-113.015
X147.31Y-120.635
X148.59Y-64.77
X153.67Y-72.39
X153.67Y-97.79
X154.94Y-113.03
X156.21Y-86.36
X157.47Y-93.965
X157.47Y-101.585
X160.01Y-93.965
X160.01Y-101.585
X162.55Y-93.965
X162.55Y-101.585
X165.09Y-93.965
X165.09Y-101.585
X165.1Y-113.03
X166.37Y-86.36
T3
X71.12Y-76.2
X71.12Y-91.44
X81.28Y-76.2
X81.28Y-91.44
T4
X115.57Y-112.894
X115.57Y-117.894
X136.106Y-83.82
X141.106Y-83.82
T5
X64.77Y-83.9
X64.77Y-88.9
X64.77Y-93.9
T6
X64.77Y-106.68
X64.77Y-111.76
X64.77Y-116.84
X88.9Y-119.38
X93.98Y-119.38
X99.06Y-119.38
X161.29Y-59.69
X161.29Y-64.77
X161.29Y-72.39
X161.29Y-77.47
M30
