%TF.GenerationSoftware,KiCad,Pcbnew,9.0.7*%
%TF.CreationDate,2026-02-02T16:44:15-03:00*%
%TF.ProjectId,Controlador PID,436f6e74-726f-46c6-9164-6f7220504944,rev?*%
%TF.SameCoordinates,Original*%
%TF.FileFunction,Soldermask,Bot*%
%TF.FilePolarity,Negative*%
%FSLAX46Y46*%
G04 Gerber Fmt 4.6, Leading zero omitted, Abs format (unit mm)*
G04 Created by KiCad (PCBNEW 9.0.7) date 2026-02-02 16:44:15*
%MOMM*%
%LPD*%
G01*
G04 APERTURE LIST*
%ADD10C,2.000000*%
%ADD11R,3.000000X3.000000*%
%ADD12C,3.000000*%
%ADD13R,2.000000X2.400000*%
%ADD14O,2.000000X2.400000*%
%ADD15R,2.400000X2.000000*%
%ADD16O,2.400000X2.000000*%
%ADD17R,2.000000X2.000000*%
%ADD18R,2.400000X2.400000*%
%ADD19C,2.400000*%
%ADD20C,2.340000*%
%ADD21R,2.200000X2.200000*%
%ADD22O,2.200000X2.200000*%
%ADD23O,2.000000X2.000000*%
G04 APERTURE END LIST*
D10*
%TO.C,Rd1*%
X120650000Y-71120000D03*
X110490000Y-71120000D03*
%TD*%
D11*
%TO.C,J3*%
X161290000Y-77470000D03*
D12*
X161290000Y-72390000D03*
%TD*%
D13*
%TO.C,U5*%
X165090000Y-93965000D03*
D14*
X162550000Y-93965000D03*
X160010000Y-93965000D03*
X157470000Y-93965000D03*
X157470000Y-101585000D03*
X160010000Y-101585000D03*
X162550000Y-101585000D03*
X165090000Y-101585000D03*
%TD*%
D10*
%TO.C,R21*%
X71120000Y-99060000D03*
X81280000Y-99060000D03*
%TD*%
%TO.C,RDD1*%
X154940000Y-113030000D03*
X165100000Y-113030000D03*
%TD*%
D15*
%TO.C,U1*%
X90155000Y-92720000D03*
D16*
X90155000Y-95260000D03*
X90155000Y-97800000D03*
X90155000Y-100340000D03*
X97775000Y-100340000D03*
X97775000Y-97800000D03*
X97775000Y-95260000D03*
X97775000Y-92720000D03*
%TD*%
D10*
%TO.C,R11*%
X81280000Y-106680000D03*
X71120000Y-106680000D03*
%TD*%
D15*
%TO.C,U3*%
X125715000Y-92720000D03*
D16*
X125715000Y-95260000D03*
X125715000Y-97800000D03*
X125715000Y-100340000D03*
X133335000Y-100340000D03*
X133335000Y-97800000D03*
X133335000Y-95260000D03*
X133335000Y-92720000D03*
%TD*%
D11*
%TO.C,J4*%
X161290000Y-64770000D03*
D12*
X161290000Y-59690000D03*
%TD*%
D15*
%TO.C,U2*%
X125715000Y-67320000D03*
D16*
X125715000Y-69860000D03*
X125715000Y-72400000D03*
X125715000Y-74940000D03*
X133335000Y-74940000D03*
X133335000Y-72400000D03*
X133335000Y-69860000D03*
X133335000Y-67320000D03*
%TD*%
D17*
%TO.C,TP2*%
X148590000Y-64770000D03*
%TD*%
D18*
%TO.C,Cc1*%
X136106041Y-83820000D03*
D19*
X141106041Y-83820000D03*
%TD*%
D10*
%TO.C,RGG1*%
X76200000Y-83820000D03*
X86360000Y-83820000D03*
%TD*%
%TO.C,R22*%
X71120000Y-116840000D03*
X81280000Y-116840000D03*
%TD*%
%TO.C,RS1*%
X156210000Y-86360000D03*
X166370000Y-86360000D03*
%TD*%
%TO.C,Rf1*%
X109220000Y-87320000D03*
X119380000Y-87320000D03*
%TD*%
D20*
%TO.C,PR1*%
X64770000Y-83900000D03*
X64770000Y-88900000D03*
X64770000Y-93900000D03*
%TD*%
D10*
%TO.C,Rh3*%
X135890000Y-109220000D03*
X146050000Y-109220000D03*
%TD*%
%TO.C,R12*%
X88900000Y-109220000D03*
X99060000Y-109220000D03*
%TD*%
D13*
%TO.C,U4*%
X147310000Y-113015000D03*
D14*
X144770000Y-113015000D03*
X142230000Y-113015000D03*
X139690000Y-113015000D03*
X139690000Y-120635000D03*
X142230000Y-120635000D03*
X144770000Y-120635000D03*
X147310000Y-120635000D03*
%TD*%
D10*
%TO.C,Rh1*%
X114300000Y-105410000D03*
X124460000Y-105410000D03*
%TD*%
D15*
%TO.C,U6*%
X85075000Y-64780000D03*
D16*
X85075000Y-67320000D03*
X85075000Y-69860000D03*
X85075000Y-72400000D03*
X92695000Y-72400000D03*
X92695000Y-69860000D03*
X92695000Y-67320000D03*
X92695000Y-64780000D03*
%TD*%
D17*
%TO.C,C1*%
X78740000Y-63500000D03*
D10*
X78740000Y-61000000D03*
%TD*%
%TO.C,R1*%
X71120000Y-68580000D03*
X71120000Y-58420000D03*
%TD*%
%TO.C,Rh2*%
X125730000Y-114300000D03*
X135890000Y-114300000D03*
%TD*%
%TO.C,Rc1*%
X109220000Y-78740000D03*
X119380000Y-78740000D03*
%TD*%
%TO.C,RI1*%
X143510000Y-97790000D03*
X153670000Y-97790000D03*
%TD*%
D21*
%TO.C,D1*%
X71120000Y-76200000D03*
D22*
X81280000Y-76200000D03*
%TD*%
D10*
%TO.C,RB1*%
X99060000Y-57150000D03*
X99060000Y-67310000D03*
%TD*%
D11*
%TO.C,J2*%
X64770000Y-106680000D03*
D12*
X64770000Y-111760000D03*
X64770000Y-116840000D03*
%TD*%
D17*
%TO.C,Q1*%
X96520000Y-78740000D03*
D23*
X96520000Y-81280000D03*
X96520000Y-83820000D03*
%TD*%
D21*
%TO.C,D2*%
X81280000Y-91440000D03*
D22*
X71120000Y-91440000D03*
%TD*%
D17*
%TO.C,TP1*%
X88900000Y-78740000D03*
%TD*%
D10*
%TO.C,Rg2*%
X105410000Y-109220000D03*
X105410000Y-119380000D03*
%TD*%
%TO.C,Rd2*%
X121920000Y-62230000D03*
X132080000Y-62230000D03*
%TD*%
%TO.C,RA1*%
X83820000Y-57150000D03*
X93980000Y-57150000D03*
%TD*%
D11*
%TO.C,J1*%
X88900000Y-119380000D03*
D12*
X93980000Y-119380000D03*
X99060000Y-119380000D03*
%TD*%
D18*
%TO.C,Cd1*%
X115570000Y-117893959D03*
D19*
X115570000Y-112893959D03*
%TD*%
D10*
%TO.C,Rg1*%
X100330000Y-104140000D03*
X110490000Y-104140000D03*
%TD*%
%TO.C,Rf2*%
X109220000Y-96520000D03*
X119380000Y-96520000D03*
%TD*%
%TO.C,RP1*%
X143510000Y-72390000D03*
X153670000Y-72390000D03*
%TD*%
M02*
