%TF.GenerationSoftware,KiCad,Pcbnew,9.0.7*%
%TF.CreationDate,2026-02-02T16:44:15-03:00*%
%TF.ProjectId,Controlador PID,436f6e74-726f-46c6-9164-6f7220504944,rev?*%
%TF.SameCoordinates,Original*%
%TF.FileFunction,Legend,Top*%
%TF.FilePolarity,Positive*%
%FSLAX46Y46*%
G04 Gerber Fmt 4.6, Leading zero omitted, Abs format (unit mm)*
G04 Created by KiCad (PCBNEW 9.0.7) date 2026-02-02 16:44:15*
%MOMM*%
%LPD*%
G01*
G04 APERTURE LIST*
%ADD10C,0.150000*%
%ADD11C,0.120000*%
G04 APERTURE END LIST*
D10*
X114950952Y-69034819D02*
X114617619Y-68558628D01*
X114379524Y-69034819D02*
X114379524Y-68034819D01*
X114379524Y-68034819D02*
X114760476Y-68034819D01*
X114760476Y-68034819D02*
X114855714Y-68082438D01*
X114855714Y-68082438D02*
X114903333Y-68130057D01*
X114903333Y-68130057D02*
X114950952Y-68225295D01*
X114950952Y-68225295D02*
X114950952Y-68368152D01*
X114950952Y-68368152D02*
X114903333Y-68463390D01*
X114903333Y-68463390D02*
X114855714Y-68511009D01*
X114855714Y-68511009D02*
X114760476Y-68558628D01*
X114760476Y-68558628D02*
X114379524Y-68558628D01*
X115808095Y-69034819D02*
X115808095Y-68034819D01*
X115808095Y-68987200D02*
X115712857Y-69034819D01*
X115712857Y-69034819D02*
X115522381Y-69034819D01*
X115522381Y-69034819D02*
X115427143Y-68987200D01*
X115427143Y-68987200D02*
X115379524Y-68939580D01*
X115379524Y-68939580D02*
X115331905Y-68844342D01*
X115331905Y-68844342D02*
X115331905Y-68558628D01*
X115331905Y-68558628D02*
X115379524Y-68463390D01*
X115379524Y-68463390D02*
X115427143Y-68415771D01*
X115427143Y-68415771D02*
X115522381Y-68368152D01*
X115522381Y-68368152D02*
X115712857Y-68368152D01*
X115712857Y-68368152D02*
X115808095Y-68415771D01*
X116808095Y-69034819D02*
X116236667Y-69034819D01*
X116522381Y-69034819D02*
X116522381Y-68034819D01*
X116522381Y-68034819D02*
X116427143Y-68177676D01*
X116427143Y-68177676D02*
X116331905Y-68272914D01*
X116331905Y-68272914D02*
X116236667Y-68320533D01*
X165824819Y-75263333D02*
X166539104Y-75263333D01*
X166539104Y-75263333D02*
X166681961Y-75310952D01*
X166681961Y-75310952D02*
X166777200Y-75406190D01*
X166777200Y-75406190D02*
X166824819Y-75549047D01*
X166824819Y-75549047D02*
X166824819Y-75644285D01*
X165824819Y-74882380D02*
X165824819Y-74263333D01*
X165824819Y-74263333D02*
X166205771Y-74596666D01*
X166205771Y-74596666D02*
X166205771Y-74453809D01*
X166205771Y-74453809D02*
X166253390Y-74358571D01*
X166253390Y-74358571D02*
X166301009Y-74310952D01*
X166301009Y-74310952D02*
X166396247Y-74263333D01*
X166396247Y-74263333D02*
X166634342Y-74263333D01*
X166634342Y-74263333D02*
X166729580Y-74310952D01*
X166729580Y-74310952D02*
X166777200Y-74358571D01*
X166777200Y-74358571D02*
X166824819Y-74453809D01*
X166824819Y-74453809D02*
X166824819Y-74739523D01*
X166824819Y-74739523D02*
X166777200Y-74834761D01*
X166777200Y-74834761D02*
X166729580Y-74882380D01*
X166874819Y-98536904D02*
X167684342Y-98536904D01*
X167684342Y-98536904D02*
X167779580Y-98489285D01*
X167779580Y-98489285D02*
X167827200Y-98441666D01*
X167827200Y-98441666D02*
X167874819Y-98346428D01*
X167874819Y-98346428D02*
X167874819Y-98155952D01*
X167874819Y-98155952D02*
X167827200Y-98060714D01*
X167827200Y-98060714D02*
X167779580Y-98013095D01*
X167779580Y-98013095D02*
X167684342Y-97965476D01*
X167684342Y-97965476D02*
X166874819Y-97965476D01*
X166874819Y-97013095D02*
X166874819Y-97489285D01*
X166874819Y-97489285D02*
X167351009Y-97536904D01*
X167351009Y-97536904D02*
X167303390Y-97489285D01*
X167303390Y-97489285D02*
X167255771Y-97394047D01*
X167255771Y-97394047D02*
X167255771Y-97155952D01*
X167255771Y-97155952D02*
X167303390Y-97060714D01*
X167303390Y-97060714D02*
X167351009Y-97013095D01*
X167351009Y-97013095D02*
X167446247Y-96965476D01*
X167446247Y-96965476D02*
X167684342Y-96965476D01*
X167684342Y-96965476D02*
X167779580Y-97013095D01*
X167779580Y-97013095D02*
X167827200Y-97060714D01*
X167827200Y-97060714D02*
X167874819Y-97155952D01*
X167874819Y-97155952D02*
X167874819Y-97394047D01*
X167874819Y-97394047D02*
X167827200Y-97489285D01*
X167827200Y-97489285D02*
X167779580Y-97536904D01*
X75557142Y-96974819D02*
X75223809Y-96498628D01*
X74985714Y-96974819D02*
X74985714Y-95974819D01*
X74985714Y-95974819D02*
X75366666Y-95974819D01*
X75366666Y-95974819D02*
X75461904Y-96022438D01*
X75461904Y-96022438D02*
X75509523Y-96070057D01*
X75509523Y-96070057D02*
X75557142Y-96165295D01*
X75557142Y-96165295D02*
X75557142Y-96308152D01*
X75557142Y-96308152D02*
X75509523Y-96403390D01*
X75509523Y-96403390D02*
X75461904Y-96451009D01*
X75461904Y-96451009D02*
X75366666Y-96498628D01*
X75366666Y-96498628D02*
X74985714Y-96498628D01*
X75938095Y-96070057D02*
X75985714Y-96022438D01*
X75985714Y-96022438D02*
X76080952Y-95974819D01*
X76080952Y-95974819D02*
X76319047Y-95974819D01*
X76319047Y-95974819D02*
X76414285Y-96022438D01*
X76414285Y-96022438D02*
X76461904Y-96070057D01*
X76461904Y-96070057D02*
X76509523Y-96165295D01*
X76509523Y-96165295D02*
X76509523Y-96260533D01*
X76509523Y-96260533D02*
X76461904Y-96403390D01*
X76461904Y-96403390D02*
X75890476Y-96974819D01*
X75890476Y-96974819D02*
X76509523Y-96974819D01*
X77461904Y-96974819D02*
X76890476Y-96974819D01*
X77176190Y-96974819D02*
X77176190Y-95974819D01*
X77176190Y-95974819D02*
X77080952Y-96117676D01*
X77080952Y-96117676D02*
X76985714Y-96212914D01*
X76985714Y-96212914D02*
X76890476Y-96260533D01*
X158853333Y-111114819D02*
X158520000Y-110638628D01*
X158281905Y-111114819D02*
X158281905Y-110114819D01*
X158281905Y-110114819D02*
X158662857Y-110114819D01*
X158662857Y-110114819D02*
X158758095Y-110162438D01*
X158758095Y-110162438D02*
X158805714Y-110210057D01*
X158805714Y-110210057D02*
X158853333Y-110305295D01*
X158853333Y-110305295D02*
X158853333Y-110448152D01*
X158853333Y-110448152D02*
X158805714Y-110543390D01*
X158805714Y-110543390D02*
X158758095Y-110591009D01*
X158758095Y-110591009D02*
X158662857Y-110638628D01*
X158662857Y-110638628D02*
X158281905Y-110638628D01*
X159281905Y-111114819D02*
X159281905Y-110114819D01*
X159281905Y-110114819D02*
X159520000Y-110114819D01*
X159520000Y-110114819D02*
X159662857Y-110162438D01*
X159662857Y-110162438D02*
X159758095Y-110257676D01*
X159758095Y-110257676D02*
X159805714Y-110352914D01*
X159805714Y-110352914D02*
X159853333Y-110543390D01*
X159853333Y-110543390D02*
X159853333Y-110686247D01*
X159853333Y-110686247D02*
X159805714Y-110876723D01*
X159805714Y-110876723D02*
X159758095Y-110971961D01*
X159758095Y-110971961D02*
X159662857Y-111067200D01*
X159662857Y-111067200D02*
X159520000Y-111114819D01*
X159520000Y-111114819D02*
X159281905Y-111114819D01*
X160281905Y-111114819D02*
X160281905Y-110114819D01*
X160281905Y-110114819D02*
X160520000Y-110114819D01*
X160520000Y-110114819D02*
X160662857Y-110162438D01*
X160662857Y-110162438D02*
X160758095Y-110257676D01*
X160758095Y-110257676D02*
X160805714Y-110352914D01*
X160805714Y-110352914D02*
X160853333Y-110543390D01*
X160853333Y-110543390D02*
X160853333Y-110686247D01*
X160853333Y-110686247D02*
X160805714Y-110876723D01*
X160805714Y-110876723D02*
X160758095Y-110971961D01*
X160758095Y-110971961D02*
X160662857Y-111067200D01*
X160662857Y-111067200D02*
X160520000Y-111114819D01*
X160520000Y-111114819D02*
X160281905Y-111114819D01*
X161805714Y-111114819D02*
X161234286Y-111114819D01*
X161520000Y-111114819D02*
X161520000Y-110114819D01*
X161520000Y-110114819D02*
X161424762Y-110257676D01*
X161424762Y-110257676D02*
X161329524Y-110352914D01*
X161329524Y-110352914D02*
X161234286Y-110400533D01*
X93203095Y-89844819D02*
X93203095Y-90654342D01*
X93203095Y-90654342D02*
X93250714Y-90749580D01*
X93250714Y-90749580D02*
X93298333Y-90797200D01*
X93298333Y-90797200D02*
X93393571Y-90844819D01*
X93393571Y-90844819D02*
X93584047Y-90844819D01*
X93584047Y-90844819D02*
X93679285Y-90797200D01*
X93679285Y-90797200D02*
X93726904Y-90749580D01*
X93726904Y-90749580D02*
X93774523Y-90654342D01*
X93774523Y-90654342D02*
X93774523Y-89844819D01*
X94774523Y-90844819D02*
X94203095Y-90844819D01*
X94488809Y-90844819D02*
X94488809Y-89844819D01*
X94488809Y-89844819D02*
X94393571Y-89987676D01*
X94393571Y-89987676D02*
X94298333Y-90082914D01*
X94298333Y-90082914D02*
X94203095Y-90130533D01*
X75557142Y-104594819D02*
X75223809Y-104118628D01*
X74985714Y-104594819D02*
X74985714Y-103594819D01*
X74985714Y-103594819D02*
X75366666Y-103594819D01*
X75366666Y-103594819D02*
X75461904Y-103642438D01*
X75461904Y-103642438D02*
X75509523Y-103690057D01*
X75509523Y-103690057D02*
X75557142Y-103785295D01*
X75557142Y-103785295D02*
X75557142Y-103928152D01*
X75557142Y-103928152D02*
X75509523Y-104023390D01*
X75509523Y-104023390D02*
X75461904Y-104071009D01*
X75461904Y-104071009D02*
X75366666Y-104118628D01*
X75366666Y-104118628D02*
X74985714Y-104118628D01*
X76509523Y-104594819D02*
X75938095Y-104594819D01*
X76223809Y-104594819D02*
X76223809Y-103594819D01*
X76223809Y-103594819D02*
X76128571Y-103737676D01*
X76128571Y-103737676D02*
X76033333Y-103832914D01*
X76033333Y-103832914D02*
X75938095Y-103880533D01*
X77461904Y-104594819D02*
X76890476Y-104594819D01*
X77176190Y-104594819D02*
X77176190Y-103594819D01*
X77176190Y-103594819D02*
X77080952Y-103737676D01*
X77080952Y-103737676D02*
X76985714Y-103832914D01*
X76985714Y-103832914D02*
X76890476Y-103880533D01*
X128763095Y-89844819D02*
X128763095Y-90654342D01*
X128763095Y-90654342D02*
X128810714Y-90749580D01*
X128810714Y-90749580D02*
X128858333Y-90797200D01*
X128858333Y-90797200D02*
X128953571Y-90844819D01*
X128953571Y-90844819D02*
X129144047Y-90844819D01*
X129144047Y-90844819D02*
X129239285Y-90797200D01*
X129239285Y-90797200D02*
X129286904Y-90749580D01*
X129286904Y-90749580D02*
X129334523Y-90654342D01*
X129334523Y-90654342D02*
X129334523Y-89844819D01*
X129715476Y-89844819D02*
X130334523Y-89844819D01*
X130334523Y-89844819D02*
X130001190Y-90225771D01*
X130001190Y-90225771D02*
X130144047Y-90225771D01*
X130144047Y-90225771D02*
X130239285Y-90273390D01*
X130239285Y-90273390D02*
X130286904Y-90321009D01*
X130286904Y-90321009D02*
X130334523Y-90416247D01*
X130334523Y-90416247D02*
X130334523Y-90654342D01*
X130334523Y-90654342D02*
X130286904Y-90749580D01*
X130286904Y-90749580D02*
X130239285Y-90797200D01*
X130239285Y-90797200D02*
X130144047Y-90844819D01*
X130144047Y-90844819D02*
X129858333Y-90844819D01*
X129858333Y-90844819D02*
X129763095Y-90797200D01*
X129763095Y-90797200D02*
X129715476Y-90749580D01*
X165824819Y-62563333D02*
X166539104Y-62563333D01*
X166539104Y-62563333D02*
X166681961Y-62610952D01*
X166681961Y-62610952D02*
X166777200Y-62706190D01*
X166777200Y-62706190D02*
X166824819Y-62849047D01*
X166824819Y-62849047D02*
X166824819Y-62944285D01*
X166158152Y-61658571D02*
X166824819Y-61658571D01*
X165777200Y-61896666D02*
X166491485Y-62134761D01*
X166491485Y-62134761D02*
X166491485Y-61515714D01*
X128763095Y-64444819D02*
X128763095Y-65254342D01*
X128763095Y-65254342D02*
X128810714Y-65349580D01*
X128810714Y-65349580D02*
X128858333Y-65397200D01*
X128858333Y-65397200D02*
X128953571Y-65444819D01*
X128953571Y-65444819D02*
X129144047Y-65444819D01*
X129144047Y-65444819D02*
X129239285Y-65397200D01*
X129239285Y-65397200D02*
X129286904Y-65349580D01*
X129286904Y-65349580D02*
X129334523Y-65254342D01*
X129334523Y-65254342D02*
X129334523Y-64444819D01*
X129763095Y-64540057D02*
X129810714Y-64492438D01*
X129810714Y-64492438D02*
X129905952Y-64444819D01*
X129905952Y-64444819D02*
X130144047Y-64444819D01*
X130144047Y-64444819D02*
X130239285Y-64492438D01*
X130239285Y-64492438D02*
X130286904Y-64540057D01*
X130286904Y-64540057D02*
X130334523Y-64635295D01*
X130334523Y-64635295D02*
X130334523Y-64730533D01*
X130334523Y-64730533D02*
X130286904Y-64873390D01*
X130286904Y-64873390D02*
X129715476Y-65444819D01*
X129715476Y-65444819D02*
X130334523Y-65444819D01*
X147328095Y-61894819D02*
X147899523Y-61894819D01*
X147613809Y-62894819D02*
X147613809Y-61894819D01*
X148232857Y-62894819D02*
X148232857Y-61894819D01*
X148232857Y-61894819D02*
X148613809Y-61894819D01*
X148613809Y-61894819D02*
X148709047Y-61942438D01*
X148709047Y-61942438D02*
X148756666Y-61990057D01*
X148756666Y-61990057D02*
X148804285Y-62085295D01*
X148804285Y-62085295D02*
X148804285Y-62228152D01*
X148804285Y-62228152D02*
X148756666Y-62323390D01*
X148756666Y-62323390D02*
X148709047Y-62371009D01*
X148709047Y-62371009D02*
X148613809Y-62418628D01*
X148613809Y-62418628D02*
X148232857Y-62418628D01*
X149185238Y-61990057D02*
X149232857Y-61942438D01*
X149232857Y-61942438D02*
X149328095Y-61894819D01*
X149328095Y-61894819D02*
X149566190Y-61894819D01*
X149566190Y-61894819D02*
X149661428Y-61942438D01*
X149661428Y-61942438D02*
X149709047Y-61990057D01*
X149709047Y-61990057D02*
X149756666Y-62085295D01*
X149756666Y-62085295D02*
X149756666Y-62180533D01*
X149756666Y-62180533D02*
X149709047Y-62323390D01*
X149709047Y-62323390D02*
X149137619Y-62894819D01*
X149137619Y-62894819D02*
X149756666Y-62894819D01*
X138010802Y-76679580D02*
X137963183Y-76727200D01*
X137963183Y-76727200D02*
X137820326Y-76774819D01*
X137820326Y-76774819D02*
X137725088Y-76774819D01*
X137725088Y-76774819D02*
X137582231Y-76727200D01*
X137582231Y-76727200D02*
X137486993Y-76631961D01*
X137486993Y-76631961D02*
X137439374Y-76536723D01*
X137439374Y-76536723D02*
X137391755Y-76346247D01*
X137391755Y-76346247D02*
X137391755Y-76203390D01*
X137391755Y-76203390D02*
X137439374Y-76012914D01*
X137439374Y-76012914D02*
X137486993Y-75917676D01*
X137486993Y-75917676D02*
X137582231Y-75822438D01*
X137582231Y-75822438D02*
X137725088Y-75774819D01*
X137725088Y-75774819D02*
X137820326Y-75774819D01*
X137820326Y-75774819D02*
X137963183Y-75822438D01*
X137963183Y-75822438D02*
X138010802Y-75870057D01*
X138867945Y-76727200D02*
X138772707Y-76774819D01*
X138772707Y-76774819D02*
X138582231Y-76774819D01*
X138582231Y-76774819D02*
X138486993Y-76727200D01*
X138486993Y-76727200D02*
X138439374Y-76679580D01*
X138439374Y-76679580D02*
X138391755Y-76584342D01*
X138391755Y-76584342D02*
X138391755Y-76298628D01*
X138391755Y-76298628D02*
X138439374Y-76203390D01*
X138439374Y-76203390D02*
X138486993Y-76155771D01*
X138486993Y-76155771D02*
X138582231Y-76108152D01*
X138582231Y-76108152D02*
X138772707Y-76108152D01*
X138772707Y-76108152D02*
X138867945Y-76155771D01*
X139820326Y-76774819D02*
X139248898Y-76774819D01*
X139534612Y-76774819D02*
X139534612Y-75774819D01*
X139534612Y-75774819D02*
X139439374Y-75917676D01*
X139439374Y-75917676D02*
X139344136Y-76012914D01*
X139344136Y-76012914D02*
X139248898Y-76060533D01*
X80113333Y-81904819D02*
X79780000Y-81428628D01*
X79541905Y-81904819D02*
X79541905Y-80904819D01*
X79541905Y-80904819D02*
X79922857Y-80904819D01*
X79922857Y-80904819D02*
X80018095Y-80952438D01*
X80018095Y-80952438D02*
X80065714Y-81000057D01*
X80065714Y-81000057D02*
X80113333Y-81095295D01*
X80113333Y-81095295D02*
X80113333Y-81238152D01*
X80113333Y-81238152D02*
X80065714Y-81333390D01*
X80065714Y-81333390D02*
X80018095Y-81381009D01*
X80018095Y-81381009D02*
X79922857Y-81428628D01*
X79922857Y-81428628D02*
X79541905Y-81428628D01*
X81065714Y-80952438D02*
X80970476Y-80904819D01*
X80970476Y-80904819D02*
X80827619Y-80904819D01*
X80827619Y-80904819D02*
X80684762Y-80952438D01*
X80684762Y-80952438D02*
X80589524Y-81047676D01*
X80589524Y-81047676D02*
X80541905Y-81142914D01*
X80541905Y-81142914D02*
X80494286Y-81333390D01*
X80494286Y-81333390D02*
X80494286Y-81476247D01*
X80494286Y-81476247D02*
X80541905Y-81666723D01*
X80541905Y-81666723D02*
X80589524Y-81761961D01*
X80589524Y-81761961D02*
X80684762Y-81857200D01*
X80684762Y-81857200D02*
X80827619Y-81904819D01*
X80827619Y-81904819D02*
X80922857Y-81904819D01*
X80922857Y-81904819D02*
X81065714Y-81857200D01*
X81065714Y-81857200D02*
X81113333Y-81809580D01*
X81113333Y-81809580D02*
X81113333Y-81476247D01*
X81113333Y-81476247D02*
X80922857Y-81476247D01*
X82065714Y-80952438D02*
X81970476Y-80904819D01*
X81970476Y-80904819D02*
X81827619Y-80904819D01*
X81827619Y-80904819D02*
X81684762Y-80952438D01*
X81684762Y-80952438D02*
X81589524Y-81047676D01*
X81589524Y-81047676D02*
X81541905Y-81142914D01*
X81541905Y-81142914D02*
X81494286Y-81333390D01*
X81494286Y-81333390D02*
X81494286Y-81476247D01*
X81494286Y-81476247D02*
X81541905Y-81666723D01*
X81541905Y-81666723D02*
X81589524Y-81761961D01*
X81589524Y-81761961D02*
X81684762Y-81857200D01*
X81684762Y-81857200D02*
X81827619Y-81904819D01*
X81827619Y-81904819D02*
X81922857Y-81904819D01*
X81922857Y-81904819D02*
X82065714Y-81857200D01*
X82065714Y-81857200D02*
X82113333Y-81809580D01*
X82113333Y-81809580D02*
X82113333Y-81476247D01*
X82113333Y-81476247D02*
X81922857Y-81476247D01*
X83065714Y-81904819D02*
X82494286Y-81904819D01*
X82780000Y-81904819D02*
X82780000Y-80904819D01*
X82780000Y-80904819D02*
X82684762Y-81047676D01*
X82684762Y-81047676D02*
X82589524Y-81142914D01*
X82589524Y-81142914D02*
X82494286Y-81190533D01*
X75557142Y-114924819D02*
X75223809Y-114448628D01*
X74985714Y-114924819D02*
X74985714Y-113924819D01*
X74985714Y-113924819D02*
X75366666Y-113924819D01*
X75366666Y-113924819D02*
X75461904Y-113972438D01*
X75461904Y-113972438D02*
X75509523Y-114020057D01*
X75509523Y-114020057D02*
X75557142Y-114115295D01*
X75557142Y-114115295D02*
X75557142Y-114258152D01*
X75557142Y-114258152D02*
X75509523Y-114353390D01*
X75509523Y-114353390D02*
X75461904Y-114401009D01*
X75461904Y-114401009D02*
X75366666Y-114448628D01*
X75366666Y-114448628D02*
X74985714Y-114448628D01*
X75938095Y-114020057D02*
X75985714Y-113972438D01*
X75985714Y-113972438D02*
X76080952Y-113924819D01*
X76080952Y-113924819D02*
X76319047Y-113924819D01*
X76319047Y-113924819D02*
X76414285Y-113972438D01*
X76414285Y-113972438D02*
X76461904Y-114020057D01*
X76461904Y-114020057D02*
X76509523Y-114115295D01*
X76509523Y-114115295D02*
X76509523Y-114210533D01*
X76509523Y-114210533D02*
X76461904Y-114353390D01*
X76461904Y-114353390D02*
X75890476Y-114924819D01*
X75890476Y-114924819D02*
X76509523Y-114924819D01*
X76890476Y-114020057D02*
X76938095Y-113972438D01*
X76938095Y-113972438D02*
X77033333Y-113924819D01*
X77033333Y-113924819D02*
X77271428Y-113924819D01*
X77271428Y-113924819D02*
X77366666Y-113972438D01*
X77366666Y-113972438D02*
X77414285Y-114020057D01*
X77414285Y-114020057D02*
X77461904Y-114115295D01*
X77461904Y-114115295D02*
X77461904Y-114210533D01*
X77461904Y-114210533D02*
X77414285Y-114353390D01*
X77414285Y-114353390D02*
X76842857Y-114924819D01*
X76842857Y-114924819D02*
X77461904Y-114924819D01*
X160647142Y-84444819D02*
X160313809Y-83968628D01*
X160075714Y-84444819D02*
X160075714Y-83444819D01*
X160075714Y-83444819D02*
X160456666Y-83444819D01*
X160456666Y-83444819D02*
X160551904Y-83492438D01*
X160551904Y-83492438D02*
X160599523Y-83540057D01*
X160599523Y-83540057D02*
X160647142Y-83635295D01*
X160647142Y-83635295D02*
X160647142Y-83778152D01*
X160647142Y-83778152D02*
X160599523Y-83873390D01*
X160599523Y-83873390D02*
X160551904Y-83921009D01*
X160551904Y-83921009D02*
X160456666Y-83968628D01*
X160456666Y-83968628D02*
X160075714Y-83968628D01*
X161028095Y-84397200D02*
X161170952Y-84444819D01*
X161170952Y-84444819D02*
X161409047Y-84444819D01*
X161409047Y-84444819D02*
X161504285Y-84397200D01*
X161504285Y-84397200D02*
X161551904Y-84349580D01*
X161551904Y-84349580D02*
X161599523Y-84254342D01*
X161599523Y-84254342D02*
X161599523Y-84159104D01*
X161599523Y-84159104D02*
X161551904Y-84063866D01*
X161551904Y-84063866D02*
X161504285Y-84016247D01*
X161504285Y-84016247D02*
X161409047Y-83968628D01*
X161409047Y-83968628D02*
X161218571Y-83921009D01*
X161218571Y-83921009D02*
X161123333Y-83873390D01*
X161123333Y-83873390D02*
X161075714Y-83825771D01*
X161075714Y-83825771D02*
X161028095Y-83730533D01*
X161028095Y-83730533D02*
X161028095Y-83635295D01*
X161028095Y-83635295D02*
X161075714Y-83540057D01*
X161075714Y-83540057D02*
X161123333Y-83492438D01*
X161123333Y-83492438D02*
X161218571Y-83444819D01*
X161218571Y-83444819D02*
X161456666Y-83444819D01*
X161456666Y-83444819D02*
X161599523Y-83492438D01*
X162551904Y-84444819D02*
X161980476Y-84444819D01*
X162266190Y-84444819D02*
X162266190Y-83444819D01*
X162266190Y-83444819D02*
X162170952Y-83587676D01*
X162170952Y-83587676D02*
X162075714Y-83682914D01*
X162075714Y-83682914D02*
X161980476Y-83730533D01*
X113847618Y-85404819D02*
X113514285Y-84928628D01*
X113276190Y-85404819D02*
X113276190Y-84404819D01*
X113276190Y-84404819D02*
X113657142Y-84404819D01*
X113657142Y-84404819D02*
X113752380Y-84452438D01*
X113752380Y-84452438D02*
X113799999Y-84500057D01*
X113799999Y-84500057D02*
X113847618Y-84595295D01*
X113847618Y-84595295D02*
X113847618Y-84738152D01*
X113847618Y-84738152D02*
X113799999Y-84833390D01*
X113799999Y-84833390D02*
X113752380Y-84881009D01*
X113752380Y-84881009D02*
X113657142Y-84928628D01*
X113657142Y-84928628D02*
X113276190Y-84928628D01*
X114133333Y-84738152D02*
X114514285Y-84738152D01*
X114276190Y-85404819D02*
X114276190Y-84547676D01*
X114276190Y-84547676D02*
X114323809Y-84452438D01*
X114323809Y-84452438D02*
X114419047Y-84404819D01*
X114419047Y-84404819D02*
X114514285Y-84404819D01*
X115371428Y-85404819D02*
X114800000Y-85404819D01*
X115085714Y-85404819D02*
X115085714Y-84404819D01*
X115085714Y-84404819D02*
X114990476Y-84547676D01*
X114990476Y-84547676D02*
X114895238Y-84642914D01*
X114895238Y-84642914D02*
X114800000Y-84690533D01*
X67764819Y-90138094D02*
X66764819Y-90138094D01*
X66764819Y-90138094D02*
X66764819Y-89757142D01*
X66764819Y-89757142D02*
X66812438Y-89661904D01*
X66812438Y-89661904D02*
X66860057Y-89614285D01*
X66860057Y-89614285D02*
X66955295Y-89566666D01*
X66955295Y-89566666D02*
X67098152Y-89566666D01*
X67098152Y-89566666D02*
X67193390Y-89614285D01*
X67193390Y-89614285D02*
X67241009Y-89661904D01*
X67241009Y-89661904D02*
X67288628Y-89757142D01*
X67288628Y-89757142D02*
X67288628Y-90138094D01*
X67764819Y-88566666D02*
X67288628Y-88899999D01*
X67764819Y-89138094D02*
X66764819Y-89138094D01*
X66764819Y-89138094D02*
X66764819Y-88757142D01*
X66764819Y-88757142D02*
X66812438Y-88661904D01*
X66812438Y-88661904D02*
X66860057Y-88614285D01*
X66860057Y-88614285D02*
X66955295Y-88566666D01*
X66955295Y-88566666D02*
X67098152Y-88566666D01*
X67098152Y-88566666D02*
X67193390Y-88614285D01*
X67193390Y-88614285D02*
X67241009Y-88661904D01*
X67241009Y-88661904D02*
X67288628Y-88757142D01*
X67288628Y-88757142D02*
X67288628Y-89138094D01*
X67764819Y-87614285D02*
X67764819Y-88185713D01*
X67764819Y-87899999D02*
X66764819Y-87899999D01*
X66764819Y-87899999D02*
X66907676Y-87995237D01*
X66907676Y-87995237D02*
X67002914Y-88090475D01*
X67002914Y-88090475D02*
X67050533Y-88185713D01*
X140350952Y-107304819D02*
X140017619Y-106828628D01*
X139779524Y-107304819D02*
X139779524Y-106304819D01*
X139779524Y-106304819D02*
X140160476Y-106304819D01*
X140160476Y-106304819D02*
X140255714Y-106352438D01*
X140255714Y-106352438D02*
X140303333Y-106400057D01*
X140303333Y-106400057D02*
X140350952Y-106495295D01*
X140350952Y-106495295D02*
X140350952Y-106638152D01*
X140350952Y-106638152D02*
X140303333Y-106733390D01*
X140303333Y-106733390D02*
X140255714Y-106781009D01*
X140255714Y-106781009D02*
X140160476Y-106828628D01*
X140160476Y-106828628D02*
X139779524Y-106828628D01*
X140779524Y-107304819D02*
X140779524Y-106304819D01*
X141208095Y-107304819D02*
X141208095Y-106781009D01*
X141208095Y-106781009D02*
X141160476Y-106685771D01*
X141160476Y-106685771D02*
X141065238Y-106638152D01*
X141065238Y-106638152D02*
X140922381Y-106638152D01*
X140922381Y-106638152D02*
X140827143Y-106685771D01*
X140827143Y-106685771D02*
X140779524Y-106733390D01*
X141589048Y-106304819D02*
X142208095Y-106304819D01*
X142208095Y-106304819D02*
X141874762Y-106685771D01*
X141874762Y-106685771D02*
X142017619Y-106685771D01*
X142017619Y-106685771D02*
X142112857Y-106733390D01*
X142112857Y-106733390D02*
X142160476Y-106781009D01*
X142160476Y-106781009D02*
X142208095Y-106876247D01*
X142208095Y-106876247D02*
X142208095Y-107114342D01*
X142208095Y-107114342D02*
X142160476Y-107209580D01*
X142160476Y-107209580D02*
X142112857Y-107257200D01*
X142112857Y-107257200D02*
X142017619Y-107304819D01*
X142017619Y-107304819D02*
X141731905Y-107304819D01*
X141731905Y-107304819D02*
X141636667Y-107257200D01*
X141636667Y-107257200D02*
X141589048Y-107209580D01*
X93337142Y-107304819D02*
X93003809Y-106828628D01*
X92765714Y-107304819D02*
X92765714Y-106304819D01*
X92765714Y-106304819D02*
X93146666Y-106304819D01*
X93146666Y-106304819D02*
X93241904Y-106352438D01*
X93241904Y-106352438D02*
X93289523Y-106400057D01*
X93289523Y-106400057D02*
X93337142Y-106495295D01*
X93337142Y-106495295D02*
X93337142Y-106638152D01*
X93337142Y-106638152D02*
X93289523Y-106733390D01*
X93289523Y-106733390D02*
X93241904Y-106781009D01*
X93241904Y-106781009D02*
X93146666Y-106828628D01*
X93146666Y-106828628D02*
X92765714Y-106828628D01*
X94289523Y-107304819D02*
X93718095Y-107304819D01*
X94003809Y-107304819D02*
X94003809Y-106304819D01*
X94003809Y-106304819D02*
X93908571Y-106447676D01*
X93908571Y-106447676D02*
X93813333Y-106542914D01*
X93813333Y-106542914D02*
X93718095Y-106590533D01*
X94670476Y-106400057D02*
X94718095Y-106352438D01*
X94718095Y-106352438D02*
X94813333Y-106304819D01*
X94813333Y-106304819D02*
X95051428Y-106304819D01*
X95051428Y-106304819D02*
X95146666Y-106352438D01*
X95146666Y-106352438D02*
X95194285Y-106400057D01*
X95194285Y-106400057D02*
X95241904Y-106495295D01*
X95241904Y-106495295D02*
X95241904Y-106590533D01*
X95241904Y-106590533D02*
X95194285Y-106733390D01*
X95194285Y-106733390D02*
X94622857Y-107304819D01*
X94622857Y-107304819D02*
X95241904Y-107304819D01*
X149094819Y-117586904D02*
X149904342Y-117586904D01*
X149904342Y-117586904D02*
X149999580Y-117539285D01*
X149999580Y-117539285D02*
X150047200Y-117491666D01*
X150047200Y-117491666D02*
X150094819Y-117396428D01*
X150094819Y-117396428D02*
X150094819Y-117205952D01*
X150094819Y-117205952D02*
X150047200Y-117110714D01*
X150047200Y-117110714D02*
X149999580Y-117063095D01*
X149999580Y-117063095D02*
X149904342Y-117015476D01*
X149904342Y-117015476D02*
X149094819Y-117015476D01*
X149428152Y-116110714D02*
X150094819Y-116110714D01*
X149047200Y-116348809D02*
X149761485Y-116586904D01*
X149761485Y-116586904D02*
X149761485Y-115967857D01*
X118760952Y-103494819D02*
X118427619Y-103018628D01*
X118189524Y-103494819D02*
X118189524Y-102494819D01*
X118189524Y-102494819D02*
X118570476Y-102494819D01*
X118570476Y-102494819D02*
X118665714Y-102542438D01*
X118665714Y-102542438D02*
X118713333Y-102590057D01*
X118713333Y-102590057D02*
X118760952Y-102685295D01*
X118760952Y-102685295D02*
X118760952Y-102828152D01*
X118760952Y-102828152D02*
X118713333Y-102923390D01*
X118713333Y-102923390D02*
X118665714Y-102971009D01*
X118665714Y-102971009D02*
X118570476Y-103018628D01*
X118570476Y-103018628D02*
X118189524Y-103018628D01*
X119189524Y-103494819D02*
X119189524Y-102494819D01*
X119618095Y-103494819D02*
X119618095Y-102971009D01*
X119618095Y-102971009D02*
X119570476Y-102875771D01*
X119570476Y-102875771D02*
X119475238Y-102828152D01*
X119475238Y-102828152D02*
X119332381Y-102828152D01*
X119332381Y-102828152D02*
X119237143Y-102875771D01*
X119237143Y-102875771D02*
X119189524Y-102923390D01*
X120618095Y-103494819D02*
X120046667Y-103494819D01*
X120332381Y-103494819D02*
X120332381Y-102494819D01*
X120332381Y-102494819D02*
X120237143Y-102637676D01*
X120237143Y-102637676D02*
X120141905Y-102732914D01*
X120141905Y-102732914D02*
X120046667Y-102780533D01*
X88123095Y-61904819D02*
X88123095Y-62714342D01*
X88123095Y-62714342D02*
X88170714Y-62809580D01*
X88170714Y-62809580D02*
X88218333Y-62857200D01*
X88218333Y-62857200D02*
X88313571Y-62904819D01*
X88313571Y-62904819D02*
X88504047Y-62904819D01*
X88504047Y-62904819D02*
X88599285Y-62857200D01*
X88599285Y-62857200D02*
X88646904Y-62809580D01*
X88646904Y-62809580D02*
X88694523Y-62714342D01*
X88694523Y-62714342D02*
X88694523Y-61904819D01*
X89599285Y-61904819D02*
X89408809Y-61904819D01*
X89408809Y-61904819D02*
X89313571Y-61952438D01*
X89313571Y-61952438D02*
X89265952Y-62000057D01*
X89265952Y-62000057D02*
X89170714Y-62142914D01*
X89170714Y-62142914D02*
X89123095Y-62333390D01*
X89123095Y-62333390D02*
X89123095Y-62714342D01*
X89123095Y-62714342D02*
X89170714Y-62809580D01*
X89170714Y-62809580D02*
X89218333Y-62857200D01*
X89218333Y-62857200D02*
X89313571Y-62904819D01*
X89313571Y-62904819D02*
X89504047Y-62904819D01*
X89504047Y-62904819D02*
X89599285Y-62857200D01*
X89599285Y-62857200D02*
X89646904Y-62809580D01*
X89646904Y-62809580D02*
X89694523Y-62714342D01*
X89694523Y-62714342D02*
X89694523Y-62476247D01*
X89694523Y-62476247D02*
X89646904Y-62381009D01*
X89646904Y-62381009D02*
X89599285Y-62333390D01*
X89599285Y-62333390D02*
X89504047Y-62285771D01*
X89504047Y-62285771D02*
X89313571Y-62285771D01*
X89313571Y-62285771D02*
X89218333Y-62333390D01*
X89218333Y-62333390D02*
X89170714Y-62381009D01*
X89170714Y-62381009D02*
X89123095Y-62476247D01*
X78573333Y-58779580D02*
X78525714Y-58827200D01*
X78525714Y-58827200D02*
X78382857Y-58874819D01*
X78382857Y-58874819D02*
X78287619Y-58874819D01*
X78287619Y-58874819D02*
X78144762Y-58827200D01*
X78144762Y-58827200D02*
X78049524Y-58731961D01*
X78049524Y-58731961D02*
X78001905Y-58636723D01*
X78001905Y-58636723D02*
X77954286Y-58446247D01*
X77954286Y-58446247D02*
X77954286Y-58303390D01*
X77954286Y-58303390D02*
X78001905Y-58112914D01*
X78001905Y-58112914D02*
X78049524Y-58017676D01*
X78049524Y-58017676D02*
X78144762Y-57922438D01*
X78144762Y-57922438D02*
X78287619Y-57874819D01*
X78287619Y-57874819D02*
X78382857Y-57874819D01*
X78382857Y-57874819D02*
X78525714Y-57922438D01*
X78525714Y-57922438D02*
X78573333Y-57970057D01*
X79525714Y-58874819D02*
X78954286Y-58874819D01*
X79240000Y-58874819D02*
X79240000Y-57874819D01*
X79240000Y-57874819D02*
X79144762Y-58017676D01*
X79144762Y-58017676D02*
X79049524Y-58112914D01*
X79049524Y-58112914D02*
X78954286Y-58160533D01*
X74114819Y-63666666D02*
X73638628Y-63999999D01*
X74114819Y-64238094D02*
X73114819Y-64238094D01*
X73114819Y-64238094D02*
X73114819Y-63857142D01*
X73114819Y-63857142D02*
X73162438Y-63761904D01*
X73162438Y-63761904D02*
X73210057Y-63714285D01*
X73210057Y-63714285D02*
X73305295Y-63666666D01*
X73305295Y-63666666D02*
X73448152Y-63666666D01*
X73448152Y-63666666D02*
X73543390Y-63714285D01*
X73543390Y-63714285D02*
X73591009Y-63761904D01*
X73591009Y-63761904D02*
X73638628Y-63857142D01*
X73638628Y-63857142D02*
X73638628Y-64238094D01*
X74114819Y-62714285D02*
X74114819Y-63285713D01*
X74114819Y-62999999D02*
X73114819Y-62999999D01*
X73114819Y-62999999D02*
X73257676Y-63095237D01*
X73257676Y-63095237D02*
X73352914Y-63190475D01*
X73352914Y-63190475D02*
X73400533Y-63285713D01*
X130190952Y-112384819D02*
X129857619Y-111908628D01*
X129619524Y-112384819D02*
X129619524Y-111384819D01*
X129619524Y-111384819D02*
X130000476Y-111384819D01*
X130000476Y-111384819D02*
X130095714Y-111432438D01*
X130095714Y-111432438D02*
X130143333Y-111480057D01*
X130143333Y-111480057D02*
X130190952Y-111575295D01*
X130190952Y-111575295D02*
X130190952Y-111718152D01*
X130190952Y-111718152D02*
X130143333Y-111813390D01*
X130143333Y-111813390D02*
X130095714Y-111861009D01*
X130095714Y-111861009D02*
X130000476Y-111908628D01*
X130000476Y-111908628D02*
X129619524Y-111908628D01*
X130619524Y-112384819D02*
X130619524Y-111384819D01*
X131048095Y-112384819D02*
X131048095Y-111861009D01*
X131048095Y-111861009D02*
X131000476Y-111765771D01*
X131000476Y-111765771D02*
X130905238Y-111718152D01*
X130905238Y-111718152D02*
X130762381Y-111718152D01*
X130762381Y-111718152D02*
X130667143Y-111765771D01*
X130667143Y-111765771D02*
X130619524Y-111813390D01*
X131476667Y-111480057D02*
X131524286Y-111432438D01*
X131524286Y-111432438D02*
X131619524Y-111384819D01*
X131619524Y-111384819D02*
X131857619Y-111384819D01*
X131857619Y-111384819D02*
X131952857Y-111432438D01*
X131952857Y-111432438D02*
X132000476Y-111480057D01*
X132000476Y-111480057D02*
X132048095Y-111575295D01*
X132048095Y-111575295D02*
X132048095Y-111670533D01*
X132048095Y-111670533D02*
X132000476Y-111813390D01*
X132000476Y-111813390D02*
X131429048Y-112384819D01*
X131429048Y-112384819D02*
X132048095Y-112384819D01*
X113704761Y-76824819D02*
X113371428Y-76348628D01*
X113133333Y-76824819D02*
X113133333Y-75824819D01*
X113133333Y-75824819D02*
X113514285Y-75824819D01*
X113514285Y-75824819D02*
X113609523Y-75872438D01*
X113609523Y-75872438D02*
X113657142Y-75920057D01*
X113657142Y-75920057D02*
X113704761Y-76015295D01*
X113704761Y-76015295D02*
X113704761Y-76158152D01*
X113704761Y-76158152D02*
X113657142Y-76253390D01*
X113657142Y-76253390D02*
X113609523Y-76301009D01*
X113609523Y-76301009D02*
X113514285Y-76348628D01*
X113514285Y-76348628D02*
X113133333Y-76348628D01*
X114561904Y-76777200D02*
X114466666Y-76824819D01*
X114466666Y-76824819D02*
X114276190Y-76824819D01*
X114276190Y-76824819D02*
X114180952Y-76777200D01*
X114180952Y-76777200D02*
X114133333Y-76729580D01*
X114133333Y-76729580D02*
X114085714Y-76634342D01*
X114085714Y-76634342D02*
X114085714Y-76348628D01*
X114085714Y-76348628D02*
X114133333Y-76253390D01*
X114133333Y-76253390D02*
X114180952Y-76205771D01*
X114180952Y-76205771D02*
X114276190Y-76158152D01*
X114276190Y-76158152D02*
X114466666Y-76158152D01*
X114466666Y-76158152D02*
X114561904Y-76205771D01*
X115514285Y-76824819D02*
X114942857Y-76824819D01*
X115228571Y-76824819D02*
X115228571Y-75824819D01*
X115228571Y-75824819D02*
X115133333Y-75967676D01*
X115133333Y-75967676D02*
X115038095Y-76062914D01*
X115038095Y-76062914D02*
X114942857Y-76110533D01*
X148185238Y-95874819D02*
X147851905Y-95398628D01*
X147613810Y-95874819D02*
X147613810Y-94874819D01*
X147613810Y-94874819D02*
X147994762Y-94874819D01*
X147994762Y-94874819D02*
X148090000Y-94922438D01*
X148090000Y-94922438D02*
X148137619Y-94970057D01*
X148137619Y-94970057D02*
X148185238Y-95065295D01*
X148185238Y-95065295D02*
X148185238Y-95208152D01*
X148185238Y-95208152D02*
X148137619Y-95303390D01*
X148137619Y-95303390D02*
X148090000Y-95351009D01*
X148090000Y-95351009D02*
X147994762Y-95398628D01*
X147994762Y-95398628D02*
X147613810Y-95398628D01*
X148613810Y-95874819D02*
X148613810Y-94874819D01*
X149613809Y-95874819D02*
X149042381Y-95874819D01*
X149328095Y-95874819D02*
X149328095Y-94874819D01*
X149328095Y-94874819D02*
X149232857Y-95017676D01*
X149232857Y-95017676D02*
X149137619Y-95112914D01*
X149137619Y-95112914D02*
X149042381Y-95160533D01*
X75461905Y-74114819D02*
X75461905Y-73114819D01*
X75461905Y-73114819D02*
X75700000Y-73114819D01*
X75700000Y-73114819D02*
X75842857Y-73162438D01*
X75842857Y-73162438D02*
X75938095Y-73257676D01*
X75938095Y-73257676D02*
X75985714Y-73352914D01*
X75985714Y-73352914D02*
X76033333Y-73543390D01*
X76033333Y-73543390D02*
X76033333Y-73686247D01*
X76033333Y-73686247D02*
X75985714Y-73876723D01*
X75985714Y-73876723D02*
X75938095Y-73971961D01*
X75938095Y-73971961D02*
X75842857Y-74067200D01*
X75842857Y-74067200D02*
X75700000Y-74114819D01*
X75700000Y-74114819D02*
X75461905Y-74114819D01*
X76985714Y-74114819D02*
X76414286Y-74114819D01*
X76700000Y-74114819D02*
X76700000Y-73114819D01*
X76700000Y-73114819D02*
X76604762Y-73257676D01*
X76604762Y-73257676D02*
X76509524Y-73352914D01*
X76509524Y-73352914D02*
X76414286Y-73400533D01*
X70858095Y-74114819D02*
X70858095Y-73114819D01*
X71429523Y-74114819D02*
X71000952Y-73543390D01*
X71429523Y-73114819D02*
X70858095Y-73686247D01*
X101884819Y-62896666D02*
X101408628Y-63229999D01*
X101884819Y-63468094D02*
X100884819Y-63468094D01*
X100884819Y-63468094D02*
X100884819Y-63087142D01*
X100884819Y-63087142D02*
X100932438Y-62991904D01*
X100932438Y-62991904D02*
X100980057Y-62944285D01*
X100980057Y-62944285D02*
X101075295Y-62896666D01*
X101075295Y-62896666D02*
X101218152Y-62896666D01*
X101218152Y-62896666D02*
X101313390Y-62944285D01*
X101313390Y-62944285D02*
X101361009Y-62991904D01*
X101361009Y-62991904D02*
X101408628Y-63087142D01*
X101408628Y-63087142D02*
X101408628Y-63468094D01*
X101361009Y-62134761D02*
X101408628Y-61991904D01*
X101408628Y-61991904D02*
X101456247Y-61944285D01*
X101456247Y-61944285D02*
X101551485Y-61896666D01*
X101551485Y-61896666D02*
X101694342Y-61896666D01*
X101694342Y-61896666D02*
X101789580Y-61944285D01*
X101789580Y-61944285D02*
X101837200Y-61991904D01*
X101837200Y-61991904D02*
X101884819Y-62087142D01*
X101884819Y-62087142D02*
X101884819Y-62468094D01*
X101884819Y-62468094D02*
X100884819Y-62468094D01*
X100884819Y-62468094D02*
X100884819Y-62134761D01*
X100884819Y-62134761D02*
X100932438Y-62039523D01*
X100932438Y-62039523D02*
X100980057Y-61991904D01*
X100980057Y-61991904D02*
X101075295Y-61944285D01*
X101075295Y-61944285D02*
X101170533Y-61944285D01*
X101170533Y-61944285D02*
X101265771Y-61991904D01*
X101265771Y-61991904D02*
X101313390Y-62039523D01*
X101313390Y-62039523D02*
X101361009Y-62134761D01*
X101361009Y-62134761D02*
X101361009Y-62468094D01*
X101884819Y-60944285D02*
X101884819Y-61515713D01*
X101884819Y-61229999D02*
X100884819Y-61229999D01*
X100884819Y-61229999D02*
X101027676Y-61325237D01*
X101027676Y-61325237D02*
X101122914Y-61420475D01*
X101122914Y-61420475D02*
X101170533Y-61515713D01*
X69304819Y-112093333D02*
X70019104Y-112093333D01*
X70019104Y-112093333D02*
X70161961Y-112140952D01*
X70161961Y-112140952D02*
X70257200Y-112236190D01*
X70257200Y-112236190D02*
X70304819Y-112379047D01*
X70304819Y-112379047D02*
X70304819Y-112474285D01*
X69400057Y-111664761D02*
X69352438Y-111617142D01*
X69352438Y-111617142D02*
X69304819Y-111521904D01*
X69304819Y-111521904D02*
X69304819Y-111283809D01*
X69304819Y-111283809D02*
X69352438Y-111188571D01*
X69352438Y-111188571D02*
X69400057Y-111140952D01*
X69400057Y-111140952D02*
X69495295Y-111093333D01*
X69495295Y-111093333D02*
X69590533Y-111093333D01*
X69590533Y-111093333D02*
X69733390Y-111140952D01*
X69733390Y-111140952D02*
X70304819Y-111712380D01*
X70304819Y-111712380D02*
X70304819Y-111093333D01*
X101340057Y-81375238D02*
X101292438Y-81470476D01*
X101292438Y-81470476D02*
X101197200Y-81565714D01*
X101197200Y-81565714D02*
X101054342Y-81708571D01*
X101054342Y-81708571D02*
X101006723Y-81803809D01*
X101006723Y-81803809D02*
X101006723Y-81899047D01*
X101244819Y-81851428D02*
X101197200Y-81946666D01*
X101197200Y-81946666D02*
X101101961Y-82041904D01*
X101101961Y-82041904D02*
X100911485Y-82089523D01*
X100911485Y-82089523D02*
X100578152Y-82089523D01*
X100578152Y-82089523D02*
X100387676Y-82041904D01*
X100387676Y-82041904D02*
X100292438Y-81946666D01*
X100292438Y-81946666D02*
X100244819Y-81851428D01*
X100244819Y-81851428D02*
X100244819Y-81660952D01*
X100244819Y-81660952D02*
X100292438Y-81565714D01*
X100292438Y-81565714D02*
X100387676Y-81470476D01*
X100387676Y-81470476D02*
X100578152Y-81422857D01*
X100578152Y-81422857D02*
X100911485Y-81422857D01*
X100911485Y-81422857D02*
X101101961Y-81470476D01*
X101101961Y-81470476D02*
X101197200Y-81565714D01*
X101197200Y-81565714D02*
X101244819Y-81660952D01*
X101244819Y-81660952D02*
X101244819Y-81851428D01*
X101244819Y-80470476D02*
X101244819Y-81041904D01*
X101244819Y-80756190D02*
X100244819Y-80756190D01*
X100244819Y-80756190D02*
X100387676Y-80851428D01*
X100387676Y-80851428D02*
X100482914Y-80946666D01*
X100482914Y-80946666D02*
X100530533Y-81041904D01*
X75461905Y-89354819D02*
X75461905Y-88354819D01*
X75461905Y-88354819D02*
X75700000Y-88354819D01*
X75700000Y-88354819D02*
X75842857Y-88402438D01*
X75842857Y-88402438D02*
X75938095Y-88497676D01*
X75938095Y-88497676D02*
X75985714Y-88592914D01*
X75985714Y-88592914D02*
X76033333Y-88783390D01*
X76033333Y-88783390D02*
X76033333Y-88926247D01*
X76033333Y-88926247D02*
X75985714Y-89116723D01*
X75985714Y-89116723D02*
X75938095Y-89211961D01*
X75938095Y-89211961D02*
X75842857Y-89307200D01*
X75842857Y-89307200D02*
X75700000Y-89354819D01*
X75700000Y-89354819D02*
X75461905Y-89354819D01*
X76414286Y-88450057D02*
X76461905Y-88402438D01*
X76461905Y-88402438D02*
X76557143Y-88354819D01*
X76557143Y-88354819D02*
X76795238Y-88354819D01*
X76795238Y-88354819D02*
X76890476Y-88402438D01*
X76890476Y-88402438D02*
X76938095Y-88450057D01*
X76938095Y-88450057D02*
X76985714Y-88545295D01*
X76985714Y-88545295D02*
X76985714Y-88640533D01*
X76985714Y-88640533D02*
X76938095Y-88783390D01*
X76938095Y-88783390D02*
X76366667Y-89354819D01*
X76366667Y-89354819D02*
X76985714Y-89354819D01*
X81018095Y-89354819D02*
X81018095Y-88354819D01*
X81589523Y-89354819D02*
X81160952Y-88783390D01*
X81589523Y-88354819D02*
X81018095Y-88926247D01*
X87638095Y-75864819D02*
X88209523Y-75864819D01*
X87923809Y-76864819D02*
X87923809Y-75864819D01*
X88542857Y-76864819D02*
X88542857Y-75864819D01*
X88542857Y-75864819D02*
X88923809Y-75864819D01*
X88923809Y-75864819D02*
X89019047Y-75912438D01*
X89019047Y-75912438D02*
X89066666Y-75960057D01*
X89066666Y-75960057D02*
X89114285Y-76055295D01*
X89114285Y-76055295D02*
X89114285Y-76198152D01*
X89114285Y-76198152D02*
X89066666Y-76293390D01*
X89066666Y-76293390D02*
X89019047Y-76341009D01*
X89019047Y-76341009D02*
X88923809Y-76388628D01*
X88923809Y-76388628D02*
X88542857Y-76388628D01*
X90066666Y-76864819D02*
X89495238Y-76864819D01*
X89780952Y-76864819D02*
X89780952Y-75864819D01*
X89780952Y-75864819D02*
X89685714Y-76007676D01*
X89685714Y-76007676D02*
X89590476Y-76102914D01*
X89590476Y-76102914D02*
X89495238Y-76150533D01*
X108234819Y-114919047D02*
X107758628Y-115252380D01*
X108234819Y-115490475D02*
X107234819Y-115490475D01*
X107234819Y-115490475D02*
X107234819Y-115109523D01*
X107234819Y-115109523D02*
X107282438Y-115014285D01*
X107282438Y-115014285D02*
X107330057Y-114966666D01*
X107330057Y-114966666D02*
X107425295Y-114919047D01*
X107425295Y-114919047D02*
X107568152Y-114919047D01*
X107568152Y-114919047D02*
X107663390Y-114966666D01*
X107663390Y-114966666D02*
X107711009Y-115014285D01*
X107711009Y-115014285D02*
X107758628Y-115109523D01*
X107758628Y-115109523D02*
X107758628Y-115490475D01*
X107568152Y-114061904D02*
X108377676Y-114061904D01*
X108377676Y-114061904D02*
X108472914Y-114109523D01*
X108472914Y-114109523D02*
X108520533Y-114157142D01*
X108520533Y-114157142D02*
X108568152Y-114252380D01*
X108568152Y-114252380D02*
X108568152Y-114395237D01*
X108568152Y-114395237D02*
X108520533Y-114490475D01*
X108187200Y-114061904D02*
X108234819Y-114157142D01*
X108234819Y-114157142D02*
X108234819Y-114347618D01*
X108234819Y-114347618D02*
X108187200Y-114442856D01*
X108187200Y-114442856D02*
X108139580Y-114490475D01*
X108139580Y-114490475D02*
X108044342Y-114538094D01*
X108044342Y-114538094D02*
X107758628Y-114538094D01*
X107758628Y-114538094D02*
X107663390Y-114490475D01*
X107663390Y-114490475D02*
X107615771Y-114442856D01*
X107615771Y-114442856D02*
X107568152Y-114347618D01*
X107568152Y-114347618D02*
X107568152Y-114157142D01*
X107568152Y-114157142D02*
X107615771Y-114061904D01*
X107330057Y-113633332D02*
X107282438Y-113585713D01*
X107282438Y-113585713D02*
X107234819Y-113490475D01*
X107234819Y-113490475D02*
X107234819Y-113252380D01*
X107234819Y-113252380D02*
X107282438Y-113157142D01*
X107282438Y-113157142D02*
X107330057Y-113109523D01*
X107330057Y-113109523D02*
X107425295Y-113061904D01*
X107425295Y-113061904D02*
X107520533Y-113061904D01*
X107520533Y-113061904D02*
X107663390Y-113109523D01*
X107663390Y-113109523D02*
X108234819Y-113680951D01*
X108234819Y-113680951D02*
X108234819Y-113061904D01*
X126380952Y-60314819D02*
X126047619Y-59838628D01*
X125809524Y-60314819D02*
X125809524Y-59314819D01*
X125809524Y-59314819D02*
X126190476Y-59314819D01*
X126190476Y-59314819D02*
X126285714Y-59362438D01*
X126285714Y-59362438D02*
X126333333Y-59410057D01*
X126333333Y-59410057D02*
X126380952Y-59505295D01*
X126380952Y-59505295D02*
X126380952Y-59648152D01*
X126380952Y-59648152D02*
X126333333Y-59743390D01*
X126333333Y-59743390D02*
X126285714Y-59791009D01*
X126285714Y-59791009D02*
X126190476Y-59838628D01*
X126190476Y-59838628D02*
X125809524Y-59838628D01*
X127238095Y-60314819D02*
X127238095Y-59314819D01*
X127238095Y-60267200D02*
X127142857Y-60314819D01*
X127142857Y-60314819D02*
X126952381Y-60314819D01*
X126952381Y-60314819D02*
X126857143Y-60267200D01*
X126857143Y-60267200D02*
X126809524Y-60219580D01*
X126809524Y-60219580D02*
X126761905Y-60124342D01*
X126761905Y-60124342D02*
X126761905Y-59838628D01*
X126761905Y-59838628D02*
X126809524Y-59743390D01*
X126809524Y-59743390D02*
X126857143Y-59695771D01*
X126857143Y-59695771D02*
X126952381Y-59648152D01*
X126952381Y-59648152D02*
X127142857Y-59648152D01*
X127142857Y-59648152D02*
X127238095Y-59695771D01*
X127666667Y-59410057D02*
X127714286Y-59362438D01*
X127714286Y-59362438D02*
X127809524Y-59314819D01*
X127809524Y-59314819D02*
X128047619Y-59314819D01*
X128047619Y-59314819D02*
X128142857Y-59362438D01*
X128142857Y-59362438D02*
X128190476Y-59410057D01*
X128190476Y-59410057D02*
X128238095Y-59505295D01*
X128238095Y-59505295D02*
X128238095Y-59600533D01*
X128238095Y-59600533D02*
X128190476Y-59743390D01*
X128190476Y-59743390D02*
X127619048Y-60314819D01*
X127619048Y-60314819D02*
X128238095Y-60314819D01*
X88304761Y-55234819D02*
X87971428Y-54758628D01*
X87733333Y-55234819D02*
X87733333Y-54234819D01*
X87733333Y-54234819D02*
X88114285Y-54234819D01*
X88114285Y-54234819D02*
X88209523Y-54282438D01*
X88209523Y-54282438D02*
X88257142Y-54330057D01*
X88257142Y-54330057D02*
X88304761Y-54425295D01*
X88304761Y-54425295D02*
X88304761Y-54568152D01*
X88304761Y-54568152D02*
X88257142Y-54663390D01*
X88257142Y-54663390D02*
X88209523Y-54711009D01*
X88209523Y-54711009D02*
X88114285Y-54758628D01*
X88114285Y-54758628D02*
X87733333Y-54758628D01*
X88685714Y-54949104D02*
X89161904Y-54949104D01*
X88590476Y-55234819D02*
X88923809Y-54234819D01*
X88923809Y-54234819D02*
X89257142Y-55234819D01*
X90114285Y-55234819D02*
X89542857Y-55234819D01*
X89828571Y-55234819D02*
X89828571Y-54234819D01*
X89828571Y-54234819D02*
X89733333Y-54377676D01*
X89733333Y-54377676D02*
X89638095Y-54472914D01*
X89638095Y-54472914D02*
X89542857Y-54520533D01*
X93616666Y-114184819D02*
X93616666Y-114899104D01*
X93616666Y-114899104D02*
X93569047Y-115041961D01*
X93569047Y-115041961D02*
X93473809Y-115137200D01*
X93473809Y-115137200D02*
X93330952Y-115184819D01*
X93330952Y-115184819D02*
X93235714Y-115184819D01*
X94616666Y-115184819D02*
X94045238Y-115184819D01*
X94330952Y-115184819D02*
X94330952Y-114184819D01*
X94330952Y-114184819D02*
X94235714Y-114327676D01*
X94235714Y-114327676D02*
X94140476Y-114422914D01*
X94140476Y-114422914D02*
X94045238Y-114470533D01*
X114950952Y-108309580D02*
X114903333Y-108357200D01*
X114903333Y-108357200D02*
X114760476Y-108404819D01*
X114760476Y-108404819D02*
X114665238Y-108404819D01*
X114665238Y-108404819D02*
X114522381Y-108357200D01*
X114522381Y-108357200D02*
X114427143Y-108261961D01*
X114427143Y-108261961D02*
X114379524Y-108166723D01*
X114379524Y-108166723D02*
X114331905Y-107976247D01*
X114331905Y-107976247D02*
X114331905Y-107833390D01*
X114331905Y-107833390D02*
X114379524Y-107642914D01*
X114379524Y-107642914D02*
X114427143Y-107547676D01*
X114427143Y-107547676D02*
X114522381Y-107452438D01*
X114522381Y-107452438D02*
X114665238Y-107404819D01*
X114665238Y-107404819D02*
X114760476Y-107404819D01*
X114760476Y-107404819D02*
X114903333Y-107452438D01*
X114903333Y-107452438D02*
X114950952Y-107500057D01*
X115808095Y-108404819D02*
X115808095Y-107404819D01*
X115808095Y-108357200D02*
X115712857Y-108404819D01*
X115712857Y-108404819D02*
X115522381Y-108404819D01*
X115522381Y-108404819D02*
X115427143Y-108357200D01*
X115427143Y-108357200D02*
X115379524Y-108309580D01*
X115379524Y-108309580D02*
X115331905Y-108214342D01*
X115331905Y-108214342D02*
X115331905Y-107928628D01*
X115331905Y-107928628D02*
X115379524Y-107833390D01*
X115379524Y-107833390D02*
X115427143Y-107785771D01*
X115427143Y-107785771D02*
X115522381Y-107738152D01*
X115522381Y-107738152D02*
X115712857Y-107738152D01*
X115712857Y-107738152D02*
X115808095Y-107785771D01*
X116808095Y-108404819D02*
X116236667Y-108404819D01*
X116522381Y-108404819D02*
X116522381Y-107404819D01*
X116522381Y-107404819D02*
X116427143Y-107547676D01*
X116427143Y-107547676D02*
X116331905Y-107642914D01*
X116331905Y-107642914D02*
X116236667Y-107690533D01*
X104790952Y-102224819D02*
X104457619Y-101748628D01*
X104219524Y-102224819D02*
X104219524Y-101224819D01*
X104219524Y-101224819D02*
X104600476Y-101224819D01*
X104600476Y-101224819D02*
X104695714Y-101272438D01*
X104695714Y-101272438D02*
X104743333Y-101320057D01*
X104743333Y-101320057D02*
X104790952Y-101415295D01*
X104790952Y-101415295D02*
X104790952Y-101558152D01*
X104790952Y-101558152D02*
X104743333Y-101653390D01*
X104743333Y-101653390D02*
X104695714Y-101701009D01*
X104695714Y-101701009D02*
X104600476Y-101748628D01*
X104600476Y-101748628D02*
X104219524Y-101748628D01*
X105648095Y-101558152D02*
X105648095Y-102367676D01*
X105648095Y-102367676D02*
X105600476Y-102462914D01*
X105600476Y-102462914D02*
X105552857Y-102510533D01*
X105552857Y-102510533D02*
X105457619Y-102558152D01*
X105457619Y-102558152D02*
X105314762Y-102558152D01*
X105314762Y-102558152D02*
X105219524Y-102510533D01*
X105648095Y-102177200D02*
X105552857Y-102224819D01*
X105552857Y-102224819D02*
X105362381Y-102224819D01*
X105362381Y-102224819D02*
X105267143Y-102177200D01*
X105267143Y-102177200D02*
X105219524Y-102129580D01*
X105219524Y-102129580D02*
X105171905Y-102034342D01*
X105171905Y-102034342D02*
X105171905Y-101748628D01*
X105171905Y-101748628D02*
X105219524Y-101653390D01*
X105219524Y-101653390D02*
X105267143Y-101605771D01*
X105267143Y-101605771D02*
X105362381Y-101558152D01*
X105362381Y-101558152D02*
X105552857Y-101558152D01*
X105552857Y-101558152D02*
X105648095Y-101605771D01*
X106648095Y-102224819D02*
X106076667Y-102224819D01*
X106362381Y-102224819D02*
X106362381Y-101224819D01*
X106362381Y-101224819D02*
X106267143Y-101367676D01*
X106267143Y-101367676D02*
X106171905Y-101462914D01*
X106171905Y-101462914D02*
X106076667Y-101510533D01*
X113847618Y-94604819D02*
X113514285Y-94128628D01*
X113276190Y-94604819D02*
X113276190Y-93604819D01*
X113276190Y-93604819D02*
X113657142Y-93604819D01*
X113657142Y-93604819D02*
X113752380Y-93652438D01*
X113752380Y-93652438D02*
X113799999Y-93700057D01*
X113799999Y-93700057D02*
X113847618Y-93795295D01*
X113847618Y-93795295D02*
X113847618Y-93938152D01*
X113847618Y-93938152D02*
X113799999Y-94033390D01*
X113799999Y-94033390D02*
X113752380Y-94081009D01*
X113752380Y-94081009D02*
X113657142Y-94128628D01*
X113657142Y-94128628D02*
X113276190Y-94128628D01*
X114133333Y-93938152D02*
X114514285Y-93938152D01*
X114276190Y-94604819D02*
X114276190Y-93747676D01*
X114276190Y-93747676D02*
X114323809Y-93652438D01*
X114323809Y-93652438D02*
X114419047Y-93604819D01*
X114419047Y-93604819D02*
X114514285Y-93604819D01*
X114800000Y-93700057D02*
X114847619Y-93652438D01*
X114847619Y-93652438D02*
X114942857Y-93604819D01*
X114942857Y-93604819D02*
X115180952Y-93604819D01*
X115180952Y-93604819D02*
X115276190Y-93652438D01*
X115276190Y-93652438D02*
X115323809Y-93700057D01*
X115323809Y-93700057D02*
X115371428Y-93795295D01*
X115371428Y-93795295D02*
X115371428Y-93890533D01*
X115371428Y-93890533D02*
X115323809Y-94033390D01*
X115323809Y-94033390D02*
X114752381Y-94604819D01*
X114752381Y-94604819D02*
X115371428Y-94604819D01*
X147923333Y-70474819D02*
X147590000Y-69998628D01*
X147351905Y-70474819D02*
X147351905Y-69474819D01*
X147351905Y-69474819D02*
X147732857Y-69474819D01*
X147732857Y-69474819D02*
X147828095Y-69522438D01*
X147828095Y-69522438D02*
X147875714Y-69570057D01*
X147875714Y-69570057D02*
X147923333Y-69665295D01*
X147923333Y-69665295D02*
X147923333Y-69808152D01*
X147923333Y-69808152D02*
X147875714Y-69903390D01*
X147875714Y-69903390D02*
X147828095Y-69951009D01*
X147828095Y-69951009D02*
X147732857Y-69998628D01*
X147732857Y-69998628D02*
X147351905Y-69998628D01*
X148351905Y-70474819D02*
X148351905Y-69474819D01*
X148351905Y-69474819D02*
X148732857Y-69474819D01*
X148732857Y-69474819D02*
X148828095Y-69522438D01*
X148828095Y-69522438D02*
X148875714Y-69570057D01*
X148875714Y-69570057D02*
X148923333Y-69665295D01*
X148923333Y-69665295D02*
X148923333Y-69808152D01*
X148923333Y-69808152D02*
X148875714Y-69903390D01*
X148875714Y-69903390D02*
X148828095Y-69951009D01*
X148828095Y-69951009D02*
X148732857Y-69998628D01*
X148732857Y-69998628D02*
X148351905Y-69998628D01*
X149875714Y-70474819D02*
X149304286Y-70474819D01*
X149590000Y-70474819D02*
X149590000Y-69474819D01*
X149590000Y-69474819D02*
X149494762Y-69617676D01*
X149494762Y-69617676D02*
X149399524Y-69712914D01*
X149399524Y-69712914D02*
X149304286Y-69760533D01*
D11*
%TO.C,Rd1*%
X111530000Y-71120000D02*
X112300000Y-71120000D01*
X112300000Y-69750000D02*
X112300000Y-72490000D01*
X112300000Y-72490000D02*
X118840000Y-72490000D01*
X118840000Y-69750000D02*
X112300000Y-69750000D01*
X118840000Y-72490000D02*
X118840000Y-69750000D01*
X119610000Y-71120000D02*
X118840000Y-71120000D01*
%TO.C,J3*%
X157480000Y-69850000D02*
X157480000Y-80010000D01*
X157480000Y-80010000D02*
X165100000Y-80010000D01*
X163830000Y-69850000D02*
X163830000Y-80010000D01*
X165100000Y-69850000D02*
X157480000Y-69850000D01*
X165100000Y-80010000D02*
X165100000Y-69850000D01*
%TO.C,U5*%
X156140000Y-95525000D02*
X156140000Y-100025000D01*
X156140000Y-100025000D02*
X166420000Y-100025000D01*
X166420000Y-95525000D02*
X156140000Y-95525000D01*
X166420000Y-96775000D02*
X166420000Y-95525000D01*
X166420000Y-100025000D02*
X166420000Y-98775000D01*
X166420000Y-98775000D02*
G75*
G02*
X166420000Y-96775000I0J1000000D01*
G01*
%TO.C,R21*%
X72160000Y-99060000D02*
X72930000Y-99060000D01*
X72930000Y-97690000D02*
X72930000Y-100430000D01*
X72930000Y-100430000D02*
X79470000Y-100430000D01*
X79470000Y-97690000D02*
X72930000Y-97690000D01*
X79470000Y-100430000D02*
X79470000Y-97690000D01*
X80240000Y-99060000D02*
X79470000Y-99060000D01*
%TO.C,RDD1*%
X155980000Y-113030000D02*
X156750000Y-113030000D01*
X156750000Y-111660000D02*
X156750000Y-114400000D01*
X156750000Y-114400000D02*
X163290000Y-114400000D01*
X163290000Y-111660000D02*
X156750000Y-111660000D01*
X163290000Y-114400000D02*
X163290000Y-111660000D01*
X164060000Y-113030000D02*
X163290000Y-113030000D01*
%TO.C,U1*%
X91715000Y-91390000D02*
X91715000Y-101670000D01*
X91715000Y-101670000D02*
X96215000Y-101670000D01*
X92965000Y-91390000D02*
X91715000Y-91390000D01*
X96215000Y-91390000D02*
X94965000Y-91390000D01*
X96215000Y-101670000D02*
X96215000Y-91390000D01*
X94965000Y-91390000D02*
G75*
G02*
X92965000Y-91390000I-1000000J0D01*
G01*
%TO.C,R11*%
X72160000Y-106680000D02*
X72930000Y-106680000D01*
X72930000Y-105310000D02*
X72930000Y-108050000D01*
X72930000Y-108050000D02*
X79470000Y-108050000D01*
X79470000Y-105310000D02*
X72930000Y-105310000D01*
X79470000Y-108050000D02*
X79470000Y-105310000D01*
X80240000Y-106680000D02*
X79470000Y-106680000D01*
%TO.C,U3*%
X127275000Y-91390000D02*
X127275000Y-101670000D01*
X127275000Y-101670000D02*
X131775000Y-101670000D01*
X128525000Y-91390000D02*
X127275000Y-91390000D01*
X131775000Y-91390000D02*
X130525000Y-91390000D01*
X131775000Y-101670000D02*
X131775000Y-91390000D01*
X130525000Y-91390000D02*
G75*
G02*
X128525000Y-91390000I-1000000J0D01*
G01*
%TO.C,J4*%
X157480000Y-57150000D02*
X157480000Y-67310000D01*
X157480000Y-67310000D02*
X165100000Y-67310000D01*
X163830000Y-57150000D02*
X163830000Y-67310000D01*
X165100000Y-57150000D02*
X157480000Y-57150000D01*
X165100000Y-67310000D02*
X165100000Y-57150000D01*
%TO.C,U2*%
X127275000Y-65990000D02*
X127275000Y-76270000D01*
X127275000Y-76270000D02*
X131775000Y-76270000D01*
X128525000Y-65990000D02*
X127275000Y-65990000D01*
X131775000Y-65990000D02*
X130525000Y-65990000D01*
X131775000Y-76270000D02*
X131775000Y-65990000D01*
X130525000Y-65990000D02*
G75*
G02*
X128525000Y-65990000I-1000000J0D01*
G01*
%TO.C,TP2*%
X147260000Y-63440000D02*
X148590000Y-63440000D01*
X147260000Y-64770000D02*
X147260000Y-63440000D01*
X147260000Y-66040000D02*
X147260000Y-66100000D01*
X147260000Y-66040000D02*
X149920000Y-66040000D01*
X147260000Y-66100000D02*
X149920000Y-66100000D01*
X149920000Y-66040000D02*
X149920000Y-66100000D01*
%TO.C,Cc1*%
X131788959Y-80245000D02*
X133038959Y-80245000D01*
X132413959Y-79620000D02*
X132413959Y-80870000D01*
X138606041Y-77490000D02*
X138606041Y-90150000D01*
X138646041Y-77490000D02*
X138646041Y-90150000D01*
X138686041Y-77490000D02*
X138686041Y-90150000D01*
X138726041Y-77491000D02*
X138726041Y-90149000D01*
X138766041Y-77492000D02*
X138766041Y-90148000D01*
X138806041Y-77493000D02*
X138806041Y-90147000D01*
X138846041Y-77494000D02*
X138846041Y-90146000D01*
X138886041Y-77496000D02*
X138886041Y-90144000D01*
X138926041Y-77498000D02*
X138926041Y-90142000D01*
X138966041Y-77500000D02*
X138966041Y-90140000D01*
X139006041Y-77502000D02*
X139006041Y-90138000D01*
X139046041Y-77505000D02*
X139046041Y-90135000D01*
X139086041Y-77508000D02*
X139086041Y-90132000D01*
X139126041Y-77511000D02*
X139126041Y-90129000D01*
X139166041Y-77514000D02*
X139166041Y-90126000D01*
X139206041Y-77518000D02*
X139206041Y-90122000D01*
X139246041Y-77522000D02*
X139246041Y-90118000D01*
X139286041Y-77526000D02*
X139286041Y-90114000D01*
X139327041Y-77530000D02*
X139327041Y-90110000D01*
X139367041Y-77535000D02*
X139367041Y-90105000D01*
X139407041Y-77540000D02*
X139407041Y-90100000D01*
X139447041Y-77545000D02*
X139447041Y-90095000D01*
X139487041Y-77551000D02*
X139487041Y-90089000D01*
X139527041Y-77556000D02*
X139527041Y-90084000D01*
X139567041Y-77562000D02*
X139567041Y-90078000D01*
X139607041Y-77568000D02*
X139607041Y-90072000D01*
X139647041Y-77575000D02*
X139647041Y-90065000D01*
X139687041Y-77582000D02*
X139687041Y-82380000D01*
X139687041Y-85260000D02*
X139687041Y-90058000D01*
X139727041Y-77589000D02*
X139727041Y-82380000D01*
X139727041Y-85260000D02*
X139727041Y-90051000D01*
X139767041Y-77596000D02*
X139767041Y-82380000D01*
X139767041Y-85260000D02*
X139767041Y-90044000D01*
X139807041Y-77604000D02*
X139807041Y-82380000D01*
X139807041Y-85260000D02*
X139807041Y-90036000D01*
X139847041Y-77611000D02*
X139847041Y-82380000D01*
X139847041Y-85260000D02*
X139847041Y-90029000D01*
X139887041Y-77619000D02*
X139887041Y-82380000D01*
X139887041Y-85260000D02*
X139887041Y-90021000D01*
X139927041Y-77628000D02*
X139927041Y-82380000D01*
X139927041Y-85260000D02*
X139927041Y-90012000D01*
X139967041Y-77636000D02*
X139967041Y-82380000D01*
X139967041Y-85260000D02*
X139967041Y-90004000D01*
X140007041Y-77645000D02*
X140007041Y-82380000D01*
X140007041Y-85260000D02*
X140007041Y-89995000D01*
X140047041Y-77654000D02*
X140047041Y-82380000D01*
X140047041Y-85260000D02*
X140047041Y-89986000D01*
X140087041Y-77664000D02*
X140087041Y-82380000D01*
X140087041Y-85260000D02*
X140087041Y-89976000D01*
X140127041Y-77674000D02*
X140127041Y-82380000D01*
X140127041Y-85260000D02*
X140127041Y-89966000D01*
X140167041Y-77683000D02*
X140167041Y-82380000D01*
X140167041Y-85260000D02*
X140167041Y-89957000D01*
X140207041Y-77694000D02*
X140207041Y-82380000D01*
X140207041Y-85260000D02*
X140207041Y-89946000D01*
X140247041Y-77704000D02*
X140247041Y-82380000D01*
X140247041Y-85260000D02*
X140247041Y-89936000D01*
X140287041Y-77715000D02*
X140287041Y-82380000D01*
X140287041Y-85260000D02*
X140287041Y-89925000D01*
X140327041Y-77726000D02*
X140327041Y-82380000D01*
X140327041Y-85260000D02*
X140327041Y-89914000D01*
X140367041Y-77737000D02*
X140367041Y-82380000D01*
X140367041Y-85260000D02*
X140367041Y-89903000D01*
X140407041Y-77749000D02*
X140407041Y-82380000D01*
X140407041Y-85260000D02*
X140407041Y-89891000D01*
X140447041Y-77761000D02*
X140447041Y-82380000D01*
X140447041Y-85260000D02*
X140447041Y-89879000D01*
X140487041Y-77773000D02*
X140487041Y-82380000D01*
X140487041Y-85260000D02*
X140487041Y-89867000D01*
X140527041Y-77786000D02*
X140527041Y-82380000D01*
X140527041Y-85260000D02*
X140527041Y-89854000D01*
X140567041Y-77799000D02*
X140567041Y-82380000D01*
X140567041Y-85260000D02*
X140567041Y-89841000D01*
X140607041Y-77812000D02*
X140607041Y-82380000D01*
X140607041Y-85260000D02*
X140607041Y-89828000D01*
X140647041Y-77825000D02*
X140647041Y-82380000D01*
X140647041Y-85260000D02*
X140647041Y-89815000D01*
X140687041Y-77839000D02*
X140687041Y-82380000D01*
X140687041Y-85260000D02*
X140687041Y-89801000D01*
X140727041Y-77853000D02*
X140727041Y-82380000D01*
X140727041Y-85260000D02*
X140727041Y-89787000D01*
X140767041Y-77867000D02*
X140767041Y-82380000D01*
X140767041Y-85260000D02*
X140767041Y-89773000D01*
X140807041Y-77881000D02*
X140807041Y-82380000D01*
X140807041Y-85260000D02*
X140807041Y-89759000D01*
X140847041Y-77896000D02*
X140847041Y-82380000D01*
X140847041Y-85260000D02*
X140847041Y-89744000D01*
X140887041Y-77912000D02*
X140887041Y-82380000D01*
X140887041Y-85260000D02*
X140887041Y-89728000D01*
X140927041Y-77927000D02*
X140927041Y-82380000D01*
X140927041Y-85260000D02*
X140927041Y-89713000D01*
X140967041Y-77943000D02*
X140967041Y-82380000D01*
X140967041Y-85260000D02*
X140967041Y-89697000D01*
X141007041Y-77959000D02*
X141007041Y-82380000D01*
X141007041Y-85260000D02*
X141007041Y-89681000D01*
X141047041Y-77975000D02*
X141047041Y-82380000D01*
X141047041Y-85260000D02*
X141047041Y-89665000D01*
X141087041Y-77992000D02*
X141087041Y-82380000D01*
X141087041Y-85260000D02*
X141087041Y-89648000D01*
X141127041Y-78009000D02*
X141127041Y-82380000D01*
X141127041Y-85260000D02*
X141127041Y-89631000D01*
X141167041Y-78027000D02*
X141167041Y-82380000D01*
X141167041Y-85260000D02*
X141167041Y-89613000D01*
X141207041Y-78044000D02*
X141207041Y-82380000D01*
X141207041Y-85260000D02*
X141207041Y-89596000D01*
X141247041Y-78062000D02*
X141247041Y-82380000D01*
X141247041Y-85260000D02*
X141247041Y-89578000D01*
X141287041Y-78081000D02*
X141287041Y-82380000D01*
X141287041Y-85260000D02*
X141287041Y-89559000D01*
X141327041Y-78099000D02*
X141327041Y-82380000D01*
X141327041Y-85260000D02*
X141327041Y-89541000D01*
X141367041Y-78118000D02*
X141367041Y-82380000D01*
X141367041Y-85260000D02*
X141367041Y-89522000D01*
X141407041Y-78138000D02*
X141407041Y-82380000D01*
X141407041Y-85260000D02*
X141407041Y-89502000D01*
X141447041Y-78158000D02*
X141447041Y-82380000D01*
X141447041Y-85260000D02*
X141447041Y-89482000D01*
X141487041Y-78178000D02*
X141487041Y-82380000D01*
X141487041Y-85260000D02*
X141487041Y-89462000D01*
X141527041Y-78198000D02*
X141527041Y-82380000D01*
X141527041Y-85260000D02*
X141527041Y-89442000D01*
X141567041Y-78219000D02*
X141567041Y-82380000D01*
X141567041Y-85260000D02*
X141567041Y-89421000D01*
X141607041Y-78240000D02*
X141607041Y-82380000D01*
X141607041Y-85260000D02*
X141607041Y-89400000D01*
X141647041Y-78262000D02*
X141647041Y-82380000D01*
X141647041Y-85260000D02*
X141647041Y-89378000D01*
X141687041Y-78284000D02*
X141687041Y-82380000D01*
X141687041Y-85260000D02*
X141687041Y-89356000D01*
X141727041Y-78306000D02*
X141727041Y-82380000D01*
X141727041Y-85260000D02*
X141727041Y-89334000D01*
X141767041Y-78329000D02*
X141767041Y-82380000D01*
X141767041Y-85260000D02*
X141767041Y-89311000D01*
X141807041Y-78352000D02*
X141807041Y-82380000D01*
X141807041Y-85260000D02*
X141807041Y-89288000D01*
X141847041Y-78375000D02*
X141847041Y-82380000D01*
X141847041Y-85260000D02*
X141847041Y-89265000D01*
X141887041Y-78399000D02*
X141887041Y-82380000D01*
X141887041Y-85260000D02*
X141887041Y-89241000D01*
X141927041Y-78423000D02*
X141927041Y-82380000D01*
X141927041Y-85260000D02*
X141927041Y-89217000D01*
X141967041Y-78448000D02*
X141967041Y-82380000D01*
X141967041Y-85260000D02*
X141967041Y-89192000D01*
X142007041Y-78473000D02*
X142007041Y-82380000D01*
X142007041Y-85260000D02*
X142007041Y-89167000D01*
X142047041Y-78498000D02*
X142047041Y-82380000D01*
X142047041Y-85260000D02*
X142047041Y-89142000D01*
X142087041Y-78524000D02*
X142087041Y-82380000D01*
X142087041Y-85260000D02*
X142087041Y-89116000D01*
X142127041Y-78550000D02*
X142127041Y-82380000D01*
X142127041Y-85260000D02*
X142127041Y-89090000D01*
X142167041Y-78577000D02*
X142167041Y-82380000D01*
X142167041Y-85260000D02*
X142167041Y-89063000D01*
X142207041Y-78604000D02*
X142207041Y-82380000D01*
X142207041Y-85260000D02*
X142207041Y-89036000D01*
X142247041Y-78632000D02*
X142247041Y-82380000D01*
X142247041Y-85260000D02*
X142247041Y-89008000D01*
X142287041Y-78660000D02*
X142287041Y-82380000D01*
X142287041Y-85260000D02*
X142287041Y-88980000D01*
X142327041Y-78689000D02*
X142327041Y-82380000D01*
X142327041Y-85260000D02*
X142327041Y-88951000D01*
X142367041Y-78718000D02*
X142367041Y-82380000D01*
X142367041Y-85260000D02*
X142367041Y-88922000D01*
X142407041Y-78747000D02*
X142407041Y-82380000D01*
X142407041Y-85260000D02*
X142407041Y-88893000D01*
X142447041Y-78777000D02*
X142447041Y-82380000D01*
X142447041Y-85260000D02*
X142447041Y-88863000D01*
X142487041Y-78808000D02*
X142487041Y-82380000D01*
X142487041Y-85260000D02*
X142487041Y-88832000D01*
X142527041Y-78838000D02*
X142527041Y-82380000D01*
X142527041Y-85260000D02*
X142527041Y-88802000D01*
X142567041Y-78870000D02*
X142567041Y-88770000D01*
X142607041Y-78902000D02*
X142607041Y-88738000D01*
X142647041Y-78935000D02*
X142647041Y-88705000D01*
X142687041Y-78968000D02*
X142687041Y-88672000D01*
X142727041Y-79001000D02*
X142727041Y-88639000D01*
X142767041Y-79035000D02*
X142767041Y-88605000D01*
X142807041Y-79070000D02*
X142807041Y-88570000D01*
X142847041Y-79106000D02*
X142847041Y-88534000D01*
X142887041Y-79142000D02*
X142887041Y-88498000D01*
X142927041Y-79178000D02*
X142927041Y-88462000D01*
X142967041Y-79215000D02*
X142967041Y-88425000D01*
X143007041Y-79253000D02*
X143007041Y-88387000D01*
X143047041Y-79292000D02*
X143047041Y-88348000D01*
X143087041Y-79331000D02*
X143087041Y-88309000D01*
X143127041Y-79371000D02*
X143127041Y-88269000D01*
X143167041Y-79412000D02*
X143167041Y-88228000D01*
X143207041Y-79453000D02*
X143207041Y-88187000D01*
X143247041Y-79495000D02*
X143247041Y-88145000D01*
X143287041Y-79538000D02*
X143287041Y-88102000D01*
X143327041Y-79582000D02*
X143327041Y-88058000D01*
X143367041Y-79626000D02*
X143367041Y-88014000D01*
X143407041Y-79672000D02*
X143407041Y-87968000D01*
X143447041Y-79718000D02*
X143447041Y-87922000D01*
X143487041Y-79765000D02*
X143487041Y-87875000D01*
X143527041Y-79813000D02*
X143527041Y-87827000D01*
X143567041Y-79863000D02*
X143567041Y-87777000D01*
X143607041Y-79913000D02*
X143607041Y-87727000D01*
X143647041Y-79964000D02*
X143647041Y-87676000D01*
X143687041Y-80016000D02*
X143687041Y-87624000D01*
X143727041Y-80070000D02*
X143727041Y-87570000D01*
X143767041Y-80124000D02*
X143767041Y-87516000D01*
X143807041Y-80180000D02*
X143807041Y-87460000D01*
X143847041Y-80237000D02*
X143847041Y-87403000D01*
X143887041Y-80296000D02*
X143887041Y-87344000D01*
X143927041Y-80356000D02*
X143927041Y-87284000D01*
X143967041Y-80418000D02*
X143967041Y-87222000D01*
X144007041Y-80481000D02*
X144007041Y-87159000D01*
X144047041Y-80545000D02*
X144047041Y-87095000D01*
X144087041Y-80612000D02*
X144087041Y-87028000D01*
X144127041Y-80680000D02*
X144127041Y-86960000D01*
X144167041Y-80751000D02*
X144167041Y-86889000D01*
X144207041Y-80824000D02*
X144207041Y-86816000D01*
X144247041Y-80899000D02*
X144247041Y-86741000D01*
X144287041Y-80976000D02*
X144287041Y-86664000D01*
X144327041Y-81056000D02*
X144327041Y-86584000D01*
X144367041Y-81139000D02*
X144367041Y-86501000D01*
X144407041Y-81226000D02*
X144407041Y-86414000D01*
X144447041Y-81316000D02*
X144447041Y-86324000D01*
X144487041Y-81410000D02*
X144487041Y-86230000D01*
X144527041Y-81508000D02*
X144527041Y-86132000D01*
X144567041Y-81611000D02*
X144567041Y-86029000D01*
X144607041Y-81720000D02*
X144607041Y-85920000D01*
X144647041Y-81836000D02*
X144647041Y-85804000D01*
X144687041Y-81959000D02*
X144687041Y-85681000D01*
X144727041Y-82092000D02*
X144727041Y-85548000D01*
X144767041Y-82237000D02*
X144767041Y-85403000D01*
X144807041Y-82398000D02*
X144807041Y-85242000D01*
X144847041Y-82579000D02*
X144847041Y-85061000D01*
X144887041Y-82792000D02*
X144887041Y-84848000D01*
X144927041Y-83063000D02*
X144927041Y-84577000D01*
X144967041Y-83503000D02*
X144967041Y-84137000D01*
X144976041Y-83820000D02*
G75*
G02*
X132236041Y-83820000I-6370000J0D01*
G01*
X132236041Y-83820000D02*
G75*
G02*
X144976041Y-83820000I6370000J0D01*
G01*
%TO.C,RGG1*%
X77240000Y-83820000D02*
X78010000Y-83820000D01*
X78010000Y-82450000D02*
X78010000Y-85190000D01*
X78010000Y-85190000D02*
X84550000Y-85190000D01*
X84550000Y-82450000D02*
X78010000Y-82450000D01*
X84550000Y-85190000D02*
X84550000Y-82450000D01*
X85320000Y-83820000D02*
X84550000Y-83820000D01*
%TO.C,R22*%
X72160000Y-116840000D02*
X72930000Y-116840000D01*
X72930000Y-115470000D02*
X72930000Y-118210000D01*
X72930000Y-118210000D02*
X79470000Y-118210000D01*
X79470000Y-115470000D02*
X72930000Y-115470000D01*
X79470000Y-118210000D02*
X79470000Y-115470000D01*
X80240000Y-116840000D02*
X79470000Y-116840000D01*
%TO.C,RS1*%
X157250000Y-86360000D02*
X158020000Y-86360000D01*
X158020000Y-84990000D02*
X158020000Y-87730000D01*
X158020000Y-87730000D02*
X164560000Y-87730000D01*
X164560000Y-84990000D02*
X158020000Y-84990000D01*
X164560000Y-87730000D02*
X164560000Y-84990000D01*
X165330000Y-86360000D02*
X164560000Y-86360000D01*
%TO.C,Rf1*%
X110260000Y-87320000D02*
X111030000Y-87320000D01*
X111030000Y-85950000D02*
X111030000Y-88690000D01*
X111030000Y-88690000D02*
X117570000Y-88690000D01*
X117570000Y-85950000D02*
X111030000Y-85950000D01*
X117570000Y-88690000D02*
X117570000Y-85950000D01*
X118340000Y-87320000D02*
X117570000Y-87320000D01*
%TO.C,PR1*%
X33150000Y-92020000D02*
X33150000Y-85779000D01*
X49150000Y-85779000D02*
X33150000Y-85779000D01*
X49150000Y-92020000D02*
X33150000Y-92020000D01*
X49150000Y-92020000D02*
X49150000Y-85779000D01*
X49150000Y-94020000D02*
X49150000Y-83780000D01*
X58150000Y-83780000D02*
X49150000Y-83780000D01*
X58150000Y-94020000D02*
X49150000Y-94020000D01*
X58150000Y-94020000D02*
X58150000Y-83780000D01*
X58150000Y-97020000D02*
X58150000Y-80780000D01*
X66390000Y-80780000D02*
X58150000Y-80780000D01*
X66390000Y-97020000D02*
X58150000Y-97020000D01*
X66390000Y-97020000D02*
X66390000Y-80780000D01*
%TO.C,Rh3*%
X136930000Y-109220000D02*
X137700000Y-109220000D01*
X137700000Y-107850000D02*
X137700000Y-110590000D01*
X137700000Y-110590000D02*
X144240000Y-110590000D01*
X144240000Y-107850000D02*
X137700000Y-107850000D01*
X144240000Y-110590000D02*
X144240000Y-107850000D01*
X145010000Y-109220000D02*
X144240000Y-109220000D01*
%TO.C,R12*%
X89940000Y-109220000D02*
X90710000Y-109220000D01*
X90710000Y-107850000D02*
X90710000Y-110590000D01*
X90710000Y-110590000D02*
X97250000Y-110590000D01*
X97250000Y-107850000D02*
X90710000Y-107850000D01*
X97250000Y-110590000D02*
X97250000Y-107850000D01*
X98020000Y-109220000D02*
X97250000Y-109220000D01*
%TO.C,U4*%
X138360000Y-114575000D02*
X138360000Y-119075000D01*
X138360000Y-119075000D02*
X148640000Y-119075000D01*
X148640000Y-114575000D02*
X138360000Y-114575000D01*
X148640000Y-115825000D02*
X148640000Y-114575000D01*
X148640000Y-119075000D02*
X148640000Y-117825000D01*
X148640000Y-117825000D02*
G75*
G02*
X148640000Y-115825000I0J1000000D01*
G01*
%TO.C,Rh1*%
X115340000Y-105410000D02*
X116110000Y-105410000D01*
X116110000Y-104040000D02*
X116110000Y-106780000D01*
X116110000Y-106780000D02*
X122650000Y-106780000D01*
X122650000Y-104040000D02*
X116110000Y-104040000D01*
X122650000Y-106780000D02*
X122650000Y-104040000D01*
X123420000Y-105410000D02*
X122650000Y-105410000D01*
%TO.C,U6*%
X86635000Y-63450000D02*
X86635000Y-73730000D01*
X86635000Y-73730000D02*
X91135000Y-73730000D01*
X87885000Y-63450000D02*
X86635000Y-63450000D01*
X91135000Y-63450000D02*
X89885000Y-63450000D01*
X91135000Y-73730000D02*
X91135000Y-63450000D01*
X89885000Y-63450000D02*
G75*
G02*
X87885000Y-63450000I-1000000J0D01*
G01*
%TO.C,C1*%
X76160000Y-62210000D02*
X81320000Y-62210000D01*
X76160000Y-62250000D02*
X81320000Y-62250000D01*
X76161000Y-62170000D02*
X81319000Y-62170000D01*
X76162000Y-62130000D02*
X81318000Y-62130000D01*
X76164000Y-62090000D02*
X81316000Y-62090000D01*
X76167000Y-62050000D02*
X81313000Y-62050000D01*
X76171000Y-62010000D02*
X77700000Y-62010000D01*
X76175000Y-61970000D02*
X77700000Y-61970000D01*
X76179000Y-61930000D02*
X77700000Y-61930000D01*
X76184000Y-61890000D02*
X77700000Y-61890000D01*
X76190000Y-61850000D02*
X77700000Y-61850000D01*
X76197000Y-61810000D02*
X77700000Y-61810000D01*
X76204000Y-61770000D02*
X77700000Y-61770000D01*
X76212000Y-61730000D02*
X77700000Y-61730000D01*
X76220000Y-61690000D02*
X77700000Y-61690000D01*
X76229000Y-61650000D02*
X77700000Y-61650000D01*
X76239000Y-61610000D02*
X77700000Y-61610000D01*
X76249000Y-61570000D02*
X77700000Y-61570000D01*
X76260000Y-61529000D02*
X77700000Y-61529000D01*
X76272000Y-61489000D02*
X77700000Y-61489000D01*
X76285000Y-61449000D02*
X77700000Y-61449000D01*
X76298000Y-61409000D02*
X77700000Y-61409000D01*
X76312000Y-61369000D02*
X77700000Y-61369000D01*
X76326000Y-61329000D02*
X77700000Y-61329000D01*
X76342000Y-61289000D02*
X77700000Y-61289000D01*
X76358000Y-61249000D02*
X77700000Y-61249000D01*
X76375000Y-61209000D02*
X77700000Y-61209000D01*
X76392000Y-61169000D02*
X77700000Y-61169000D01*
X76411000Y-61129000D02*
X77700000Y-61129000D01*
X76430000Y-61089000D02*
X77700000Y-61089000D01*
X76450000Y-61049000D02*
X77700000Y-61049000D01*
X76472000Y-61009000D02*
X77700000Y-61009000D01*
X76493000Y-60969000D02*
X77700000Y-60969000D01*
X76516000Y-60929000D02*
X77700000Y-60929000D01*
X76540000Y-60889000D02*
X77700000Y-60889000D01*
X76565000Y-60849000D02*
X77700000Y-60849000D01*
X76591000Y-60809000D02*
X77700000Y-60809000D01*
X76618000Y-60769000D02*
X77700000Y-60769000D01*
X76645000Y-60729000D02*
X77700000Y-60729000D01*
X76675000Y-60689000D02*
X77700000Y-60689000D01*
X76705000Y-60649000D02*
X77700000Y-60649000D01*
X76736000Y-60609000D02*
X77700000Y-60609000D01*
X76769000Y-60569000D02*
X77700000Y-60569000D01*
X76803000Y-60529000D02*
X77700000Y-60529000D01*
X76839000Y-60489000D02*
X77700000Y-60489000D01*
X76876000Y-60449000D02*
X77700000Y-60449000D01*
X76914000Y-60409000D02*
X77700000Y-60409000D01*
X76955000Y-60369000D02*
X77700000Y-60369000D01*
X76997000Y-60329000D02*
X77700000Y-60329000D01*
X77015000Y-64804775D02*
X77515000Y-64804775D01*
X77041000Y-60289000D02*
X77700000Y-60289000D01*
X77087000Y-60249000D02*
X77700000Y-60249000D01*
X77135000Y-60209000D02*
X77700000Y-60209000D01*
X77186000Y-60169000D02*
X77700000Y-60169000D01*
X77240000Y-60129000D02*
X77700000Y-60129000D01*
X77265000Y-65054775D02*
X77265000Y-64554775D01*
X77297000Y-60089000D02*
X77700000Y-60089000D01*
X77357000Y-60049000D02*
X77700000Y-60049000D01*
X77421000Y-60009000D02*
X77700000Y-60009000D01*
X77489000Y-59969000D02*
X77700000Y-59969000D01*
X77562000Y-59929000D02*
X79918000Y-59929000D01*
X77642000Y-59889000D02*
X79838000Y-59889000D01*
X77729000Y-59849000D02*
X79751000Y-59849000D01*
X77825000Y-59809000D02*
X79655000Y-59809000D01*
X77935000Y-59769000D02*
X79545000Y-59769000D01*
X78063000Y-59729000D02*
X79417000Y-59729000D01*
X78222000Y-59689000D02*
X79258000Y-59689000D01*
X78456000Y-59649000D02*
X79024000Y-59649000D01*
X79780000Y-59969000D02*
X79991000Y-59969000D01*
X79780000Y-60009000D02*
X80059000Y-60009000D01*
X79780000Y-60049000D02*
X80123000Y-60049000D01*
X79780000Y-60089000D02*
X80183000Y-60089000D01*
X79780000Y-60129000D02*
X80240000Y-60129000D01*
X79780000Y-60169000D02*
X80294000Y-60169000D01*
X79780000Y-60209000D02*
X80345000Y-60209000D01*
X79780000Y-60249000D02*
X80393000Y-60249000D01*
X79780000Y-60289000D02*
X80439000Y-60289000D01*
X79780000Y-60329000D02*
X80483000Y-60329000D01*
X79780000Y-60369000D02*
X80525000Y-60369000D01*
X79780000Y-60409000D02*
X80566000Y-60409000D01*
X79780000Y-60449000D02*
X80604000Y-60449000D01*
X79780000Y-60489000D02*
X80641000Y-60489000D01*
X79780000Y-60529000D02*
X80677000Y-60529000D01*
X79780000Y-60569000D02*
X80711000Y-60569000D01*
X79780000Y-60609000D02*
X80744000Y-60609000D01*
X79780000Y-60649000D02*
X80775000Y-60649000D01*
X79780000Y-60689000D02*
X80805000Y-60689000D01*
X79780000Y-60729000D02*
X80835000Y-60729000D01*
X79780000Y-60769000D02*
X80862000Y-60769000D01*
X79780000Y-60809000D02*
X80889000Y-60809000D01*
X79780000Y-60849000D02*
X80915000Y-60849000D01*
X79780000Y-60889000D02*
X80940000Y-60889000D01*
X79780000Y-60929000D02*
X80964000Y-60929000D01*
X79780000Y-60969000D02*
X80987000Y-60969000D01*
X79780000Y-61009000D02*
X81008000Y-61009000D01*
X79780000Y-61049000D02*
X81030000Y-61049000D01*
X79780000Y-61089000D02*
X81050000Y-61089000D01*
X79780000Y-61129000D02*
X81069000Y-61129000D01*
X79780000Y-61169000D02*
X81088000Y-61169000D01*
X79780000Y-61209000D02*
X81105000Y-61209000D01*
X79780000Y-61249000D02*
X81122000Y-61249000D01*
X79780000Y-61289000D02*
X81138000Y-61289000D01*
X79780000Y-61329000D02*
X81154000Y-61329000D01*
X79780000Y-61369000D02*
X81168000Y-61369000D01*
X79780000Y-61409000D02*
X81182000Y-61409000D01*
X79780000Y-61449000D02*
X81195000Y-61449000D01*
X79780000Y-61489000D02*
X81208000Y-61489000D01*
X79780000Y-61529000D02*
X81220000Y-61529000D01*
X79780000Y-61570000D02*
X81231000Y-61570000D01*
X79780000Y-61610000D02*
X81241000Y-61610000D01*
X79780000Y-61650000D02*
X81251000Y-61650000D01*
X79780000Y-61690000D02*
X81260000Y-61690000D01*
X79780000Y-61730000D02*
X81268000Y-61730000D01*
X79780000Y-61770000D02*
X81276000Y-61770000D01*
X79780000Y-61810000D02*
X81283000Y-61810000D01*
X79780000Y-61850000D02*
X81290000Y-61850000D01*
X79780000Y-61890000D02*
X81296000Y-61890000D01*
X79780000Y-61930000D02*
X81301000Y-61930000D01*
X79780000Y-61970000D02*
X81305000Y-61970000D01*
X79780000Y-62010000D02*
X81309000Y-62010000D01*
X81360000Y-62250000D02*
G75*
G02*
X76120000Y-62250000I-2620000J0D01*
G01*
X76120000Y-62250000D02*
G75*
G02*
X81360000Y-62250000I2620000J0D01*
G01*
%TO.C,R1*%
X69750000Y-60230000D02*
X69750000Y-66770000D01*
X69750000Y-66770000D02*
X72490000Y-66770000D01*
X71120000Y-59460000D02*
X71120000Y-60230000D01*
X71120000Y-67540000D02*
X71120000Y-66770000D01*
X72490000Y-60230000D02*
X69750000Y-60230000D01*
X72490000Y-66770000D02*
X72490000Y-60230000D01*
%TO.C,Rh2*%
X126770000Y-114300000D02*
X127540000Y-114300000D01*
X127540000Y-112930000D02*
X127540000Y-115670000D01*
X127540000Y-115670000D02*
X134080000Y-115670000D01*
X134080000Y-112930000D02*
X127540000Y-112930000D01*
X134080000Y-115670000D02*
X134080000Y-112930000D01*
X134850000Y-114300000D02*
X134080000Y-114300000D01*
%TO.C,Rc1*%
X110260000Y-78740000D02*
X111030000Y-78740000D01*
X111030000Y-77370000D02*
X111030000Y-80110000D01*
X111030000Y-80110000D02*
X117570000Y-80110000D01*
X117570000Y-77370000D02*
X111030000Y-77370000D01*
X117570000Y-80110000D02*
X117570000Y-77370000D01*
X118340000Y-78740000D02*
X117570000Y-78740000D01*
%TO.C,RI1*%
X144550000Y-97790000D02*
X145320000Y-97790000D01*
X145320000Y-96420000D02*
X145320000Y-99160000D01*
X145320000Y-99160000D02*
X151860000Y-99160000D01*
X151860000Y-96420000D02*
X145320000Y-96420000D01*
X151860000Y-99160000D02*
X151860000Y-96420000D01*
X152630000Y-97790000D02*
X151860000Y-97790000D01*
%TO.C,D1*%
X72460000Y-76200000D02*
X73480000Y-76200000D01*
X73480000Y-74730000D02*
X73480000Y-77670000D01*
X73480000Y-77670000D02*
X78920000Y-77670000D01*
X74260000Y-74730000D02*
X74260000Y-77670000D01*
X74380000Y-74730000D02*
X74380000Y-77670000D01*
X74500000Y-74730000D02*
X74500000Y-77670000D01*
X78920000Y-74730000D02*
X73480000Y-74730000D01*
X78920000Y-77670000D02*
X78920000Y-74730000D01*
X79940000Y-76200000D02*
X78920000Y-76200000D01*
%TO.C,RB1*%
X97690000Y-58960000D02*
X97690000Y-65500000D01*
X97690000Y-65500000D02*
X100430000Y-65500000D01*
X99060000Y-58190000D02*
X99060000Y-58960000D01*
X99060000Y-66270000D02*
X99060000Y-65500000D01*
X100430000Y-58960000D02*
X97690000Y-58960000D01*
X100430000Y-65500000D02*
X100430000Y-58960000D01*
%TO.C,J2*%
X60960000Y-104140000D02*
X60960000Y-119380000D01*
X60960000Y-104140000D02*
X68580000Y-104140000D01*
X60960000Y-119380000D02*
X68580000Y-119380000D01*
X62230000Y-104140000D02*
X62230000Y-119380000D01*
X68580000Y-104140000D02*
X68580000Y-119380000D01*
%TO.C,Q1*%
X95149000Y-76160000D02*
X95149000Y-86400000D01*
X98280000Y-76160000D02*
X98280000Y-86400000D01*
X99790000Y-76160000D02*
X95149000Y-76160000D01*
X99790000Y-76160000D02*
X99790000Y-86400000D01*
X99790000Y-79430000D02*
X98280000Y-79430000D01*
X99790000Y-83131000D02*
X98280000Y-83131000D01*
X99790000Y-86400000D02*
X95149000Y-86400000D01*
%TO.C,D2*%
X72460000Y-91440000D02*
X73480000Y-91440000D01*
X73480000Y-89970000D02*
X73480000Y-92910000D01*
X73480000Y-92910000D02*
X78920000Y-92910000D01*
X77900000Y-92910000D02*
X77900000Y-89970000D01*
X78020000Y-92910000D02*
X78020000Y-89970000D01*
X78140000Y-92910000D02*
X78140000Y-89970000D01*
X78920000Y-89970000D02*
X73480000Y-89970000D01*
X78920000Y-92910000D02*
X78920000Y-89970000D01*
X79940000Y-91440000D02*
X78920000Y-91440000D01*
%TO.C,TP1*%
X87570000Y-77410000D02*
X88900000Y-77410000D01*
X87570000Y-78740000D02*
X87570000Y-77410000D01*
X87570000Y-80010000D02*
X87570000Y-80070000D01*
X87570000Y-80010000D02*
X90230000Y-80010000D01*
X87570000Y-80070000D02*
X90230000Y-80070000D01*
X90230000Y-80010000D02*
X90230000Y-80070000D01*
%TO.C,Rg2*%
X104040000Y-111030000D02*
X104040000Y-117570000D01*
X104040000Y-117570000D02*
X106780000Y-117570000D01*
X105410000Y-110260000D02*
X105410000Y-111030000D01*
X105410000Y-118340000D02*
X105410000Y-117570000D01*
X106780000Y-111030000D02*
X104040000Y-111030000D01*
X106780000Y-117570000D02*
X106780000Y-111030000D01*
%TO.C,Rd2*%
X122960000Y-62230000D02*
X123730000Y-62230000D01*
X123730000Y-60860000D02*
X123730000Y-63600000D01*
X123730000Y-63600000D02*
X130270000Y-63600000D01*
X130270000Y-60860000D02*
X123730000Y-60860000D01*
X130270000Y-63600000D02*
X130270000Y-60860000D01*
X131040000Y-62230000D02*
X130270000Y-62230000D01*
%TO.C,RA1*%
X84860000Y-57150000D02*
X85630000Y-57150000D01*
X85630000Y-55780000D02*
X85630000Y-58520000D01*
X85630000Y-58520000D02*
X92170000Y-58520000D01*
X92170000Y-55780000D02*
X85630000Y-55780000D01*
X92170000Y-58520000D02*
X92170000Y-55780000D01*
X92940000Y-57150000D02*
X92170000Y-57150000D01*
%TO.C,J1*%
X86360000Y-115570000D02*
X101600000Y-115570000D01*
X86360000Y-121920000D02*
X101600000Y-121920000D01*
X86360000Y-123190000D02*
X86360000Y-115570000D01*
X86360000Y-123190000D02*
X101600000Y-123190000D01*
X101600000Y-123190000D02*
X101600000Y-115570000D01*
%TO.C,Cd1*%
X109240000Y-115313959D02*
X121900000Y-115313959D01*
X109240000Y-115353959D02*
X121900000Y-115353959D01*
X109240000Y-115393959D02*
X121900000Y-115393959D01*
X109241000Y-115273959D02*
X121899000Y-115273959D01*
X109242000Y-115233959D02*
X121898000Y-115233959D01*
X109243000Y-115193959D02*
X121897000Y-115193959D01*
X109244000Y-115153959D02*
X121896000Y-115153959D01*
X109246000Y-115113959D02*
X121894000Y-115113959D01*
X109248000Y-115073959D02*
X121892000Y-115073959D01*
X109250000Y-115033959D02*
X121890000Y-115033959D01*
X109252000Y-114993959D02*
X121888000Y-114993959D01*
X109255000Y-114953959D02*
X121885000Y-114953959D01*
X109258000Y-114913959D02*
X121882000Y-114913959D01*
X109261000Y-114873959D02*
X121879000Y-114873959D01*
X109264000Y-114833959D02*
X121876000Y-114833959D01*
X109268000Y-114793959D02*
X121872000Y-114793959D01*
X109272000Y-114753959D02*
X121868000Y-114753959D01*
X109276000Y-114713959D02*
X121864000Y-114713959D01*
X109280000Y-114672959D02*
X121860000Y-114672959D01*
X109285000Y-114632959D02*
X121855000Y-114632959D01*
X109290000Y-114592959D02*
X121850000Y-114592959D01*
X109295000Y-114552959D02*
X121845000Y-114552959D01*
X109301000Y-114512959D02*
X121839000Y-114512959D01*
X109306000Y-114472959D02*
X121834000Y-114472959D01*
X109312000Y-114432959D02*
X121828000Y-114432959D01*
X109318000Y-114392959D02*
X121822000Y-114392959D01*
X109325000Y-114352959D02*
X121815000Y-114352959D01*
X109332000Y-114312959D02*
X114130000Y-114312959D01*
X109339000Y-114272959D02*
X114130000Y-114272959D01*
X109346000Y-114232959D02*
X114130000Y-114232959D01*
X109354000Y-114192959D02*
X114130000Y-114192959D01*
X109361000Y-114152959D02*
X114130000Y-114152959D01*
X109369000Y-114112959D02*
X114130000Y-114112959D01*
X109378000Y-114072959D02*
X114130000Y-114072959D01*
X109386000Y-114032959D02*
X114130000Y-114032959D01*
X109395000Y-113992959D02*
X114130000Y-113992959D01*
X109404000Y-113952959D02*
X114130000Y-113952959D01*
X109414000Y-113912959D02*
X114130000Y-113912959D01*
X109424000Y-113872959D02*
X114130000Y-113872959D01*
X109433000Y-113832959D02*
X114130000Y-113832959D01*
X109444000Y-113792959D02*
X114130000Y-113792959D01*
X109454000Y-113752959D02*
X114130000Y-113752959D01*
X109465000Y-113712959D02*
X114130000Y-113712959D01*
X109476000Y-113672959D02*
X114130000Y-113672959D01*
X109487000Y-113632959D02*
X114130000Y-113632959D01*
X109499000Y-113592959D02*
X114130000Y-113592959D01*
X109511000Y-113552959D02*
X114130000Y-113552959D01*
X109523000Y-113512959D02*
X114130000Y-113512959D01*
X109536000Y-113472959D02*
X114130000Y-113472959D01*
X109549000Y-113432959D02*
X114130000Y-113432959D01*
X109562000Y-113392959D02*
X114130000Y-113392959D01*
X109575000Y-113352959D02*
X114130000Y-113352959D01*
X109589000Y-113312959D02*
X114130000Y-113312959D01*
X109603000Y-113272959D02*
X114130000Y-113272959D01*
X109617000Y-113232959D02*
X114130000Y-113232959D01*
X109631000Y-113192959D02*
X114130000Y-113192959D01*
X109646000Y-113152959D02*
X114130000Y-113152959D01*
X109662000Y-113112959D02*
X114130000Y-113112959D01*
X109677000Y-113072959D02*
X114130000Y-113072959D01*
X109693000Y-113032959D02*
X114130000Y-113032959D01*
X109709000Y-112992959D02*
X114130000Y-112992959D01*
X109725000Y-112952959D02*
X114130000Y-112952959D01*
X109742000Y-112912959D02*
X114130000Y-112912959D01*
X109759000Y-112872959D02*
X114130000Y-112872959D01*
X109777000Y-112832959D02*
X114130000Y-112832959D01*
X109794000Y-112792959D02*
X114130000Y-112792959D01*
X109812000Y-112752959D02*
X114130000Y-112752959D01*
X109831000Y-112712959D02*
X114130000Y-112712959D01*
X109849000Y-112672959D02*
X114130000Y-112672959D01*
X109868000Y-112632959D02*
X114130000Y-112632959D01*
X109888000Y-112592959D02*
X114130000Y-112592959D01*
X109908000Y-112552959D02*
X114130000Y-112552959D01*
X109928000Y-112512959D02*
X114130000Y-112512959D01*
X109948000Y-112472959D02*
X114130000Y-112472959D01*
X109969000Y-112432959D02*
X114130000Y-112432959D01*
X109990000Y-112392959D02*
X114130000Y-112392959D01*
X110012000Y-112352959D02*
X114130000Y-112352959D01*
X110034000Y-112312959D02*
X114130000Y-112312959D01*
X110056000Y-112272959D02*
X114130000Y-112272959D01*
X110079000Y-112232959D02*
X114130000Y-112232959D01*
X110102000Y-112192959D02*
X114130000Y-112192959D01*
X110125000Y-112152959D02*
X114130000Y-112152959D01*
X110149000Y-112112959D02*
X114130000Y-112112959D01*
X110173000Y-112072959D02*
X114130000Y-112072959D01*
X110198000Y-112032959D02*
X114130000Y-112032959D01*
X110223000Y-111992959D02*
X114130000Y-111992959D01*
X110248000Y-111952959D02*
X114130000Y-111952959D01*
X110274000Y-111912959D02*
X114130000Y-111912959D01*
X110300000Y-111872959D02*
X114130000Y-111872959D01*
X110327000Y-111832959D02*
X114130000Y-111832959D01*
X110354000Y-111792959D02*
X114130000Y-111792959D01*
X110382000Y-111752959D02*
X114130000Y-111752959D01*
X110410000Y-111712959D02*
X114130000Y-111712959D01*
X110439000Y-111672959D02*
X114130000Y-111672959D01*
X110468000Y-111632959D02*
X114130000Y-111632959D01*
X110497000Y-111592959D02*
X114130000Y-111592959D01*
X110527000Y-111552959D02*
X114130000Y-111552959D01*
X110558000Y-111512959D02*
X114130000Y-111512959D01*
X110588000Y-111472959D02*
X114130000Y-111472959D01*
X110620000Y-111432959D02*
X120520000Y-111432959D01*
X110652000Y-111392959D02*
X120488000Y-111392959D01*
X110685000Y-111352959D02*
X120455000Y-111352959D01*
X110718000Y-111312959D02*
X120422000Y-111312959D01*
X110751000Y-111272959D02*
X120389000Y-111272959D01*
X110785000Y-111232959D02*
X120355000Y-111232959D01*
X110820000Y-111192959D02*
X120320000Y-111192959D01*
X110856000Y-111152959D02*
X120284000Y-111152959D01*
X110892000Y-111112959D02*
X120248000Y-111112959D01*
X110928000Y-111072959D02*
X120212000Y-111072959D01*
X110965000Y-111032959D02*
X120175000Y-111032959D01*
X111003000Y-110992959D02*
X120137000Y-110992959D01*
X111042000Y-110952959D02*
X120098000Y-110952959D01*
X111081000Y-110912959D02*
X120059000Y-110912959D01*
X111121000Y-110872959D02*
X120019000Y-110872959D01*
X111162000Y-110832959D02*
X119978000Y-110832959D01*
X111203000Y-110792959D02*
X119937000Y-110792959D01*
X111245000Y-110752959D02*
X119895000Y-110752959D01*
X111288000Y-110712959D02*
X119852000Y-110712959D01*
X111332000Y-110672959D02*
X119808000Y-110672959D01*
X111370000Y-121586041D02*
X112620000Y-121586041D01*
X111376000Y-110632959D02*
X119764000Y-110632959D01*
X111422000Y-110592959D02*
X119718000Y-110592959D01*
X111468000Y-110552959D02*
X119672000Y-110552959D01*
X111515000Y-110512959D02*
X119625000Y-110512959D01*
X111563000Y-110472959D02*
X119577000Y-110472959D01*
X111613000Y-110432959D02*
X119527000Y-110432959D01*
X111663000Y-110392959D02*
X119477000Y-110392959D01*
X111714000Y-110352959D02*
X119426000Y-110352959D01*
X111766000Y-110312959D02*
X119374000Y-110312959D01*
X111820000Y-110272959D02*
X119320000Y-110272959D01*
X111874000Y-110232959D02*
X119266000Y-110232959D01*
X111930000Y-110192959D02*
X119210000Y-110192959D01*
X111987000Y-110152959D02*
X119153000Y-110152959D01*
X111995000Y-122211041D02*
X111995000Y-120961041D01*
X112046000Y-110112959D02*
X119094000Y-110112959D01*
X112106000Y-110072959D02*
X119034000Y-110072959D01*
X112168000Y-110032959D02*
X118972000Y-110032959D01*
X112231000Y-109992959D02*
X118909000Y-109992959D01*
X112295000Y-109952959D02*
X118845000Y-109952959D01*
X112362000Y-109912959D02*
X118778000Y-109912959D01*
X112430000Y-109872959D02*
X118710000Y-109872959D01*
X112501000Y-109832959D02*
X118639000Y-109832959D01*
X112574000Y-109792959D02*
X118566000Y-109792959D01*
X112649000Y-109752959D02*
X118491000Y-109752959D01*
X112726000Y-109712959D02*
X118414000Y-109712959D01*
X112806000Y-109672959D02*
X118334000Y-109672959D01*
X112889000Y-109632959D02*
X118251000Y-109632959D01*
X112976000Y-109592959D02*
X118164000Y-109592959D01*
X113066000Y-109552959D02*
X118074000Y-109552959D01*
X113160000Y-109512959D02*
X117980000Y-109512959D01*
X113258000Y-109472959D02*
X117882000Y-109472959D01*
X113361000Y-109432959D02*
X117779000Y-109432959D01*
X113470000Y-109392959D02*
X117670000Y-109392959D01*
X113586000Y-109352959D02*
X117554000Y-109352959D01*
X113709000Y-109312959D02*
X117431000Y-109312959D01*
X113842000Y-109272959D02*
X117298000Y-109272959D01*
X113987000Y-109232959D02*
X117153000Y-109232959D01*
X114148000Y-109192959D02*
X116992000Y-109192959D01*
X114329000Y-109152959D02*
X116811000Y-109152959D01*
X114542000Y-109112959D02*
X116598000Y-109112959D01*
X114813000Y-109072959D02*
X116327000Y-109072959D01*
X115253000Y-109032959D02*
X115887000Y-109032959D01*
X117010000Y-111472959D02*
X120552000Y-111472959D01*
X117010000Y-111512959D02*
X120582000Y-111512959D01*
X117010000Y-111552959D02*
X120613000Y-111552959D01*
X117010000Y-111592959D02*
X120643000Y-111592959D01*
X117010000Y-111632959D02*
X120672000Y-111632959D01*
X117010000Y-111672959D02*
X120701000Y-111672959D01*
X117010000Y-111712959D02*
X120730000Y-111712959D01*
X117010000Y-111752959D02*
X120758000Y-111752959D01*
X117010000Y-111792959D02*
X120786000Y-111792959D01*
X117010000Y-111832959D02*
X120813000Y-111832959D01*
X117010000Y-111872959D02*
X120840000Y-111872959D01*
X117010000Y-111912959D02*
X120866000Y-111912959D01*
X117010000Y-111952959D02*
X120892000Y-111952959D01*
X117010000Y-111992959D02*
X120917000Y-111992959D01*
X117010000Y-112032959D02*
X120942000Y-112032959D01*
X117010000Y-112072959D02*
X120967000Y-112072959D01*
X117010000Y-112112959D02*
X120991000Y-112112959D01*
X117010000Y-112152959D02*
X121015000Y-112152959D01*
X117010000Y-112192959D02*
X121038000Y-112192959D01*
X117010000Y-112232959D02*
X121061000Y-112232959D01*
X117010000Y-112272959D02*
X121084000Y-112272959D01*
X117010000Y-112312959D02*
X121106000Y-112312959D01*
X117010000Y-112352959D02*
X121128000Y-112352959D01*
X117010000Y-112392959D02*
X121150000Y-112392959D01*
X117010000Y-112432959D02*
X121171000Y-112432959D01*
X117010000Y-112472959D02*
X121192000Y-112472959D01*
X117010000Y-112512959D02*
X121212000Y-112512959D01*
X117010000Y-112552959D02*
X121232000Y-112552959D01*
X117010000Y-112592959D02*
X121252000Y-112592959D01*
X117010000Y-112632959D02*
X121272000Y-112632959D01*
X117010000Y-112672959D02*
X121291000Y-112672959D01*
X117010000Y-112712959D02*
X121309000Y-112712959D01*
X117010000Y-112752959D02*
X121328000Y-112752959D01*
X117010000Y-112792959D02*
X121346000Y-112792959D01*
X117010000Y-112832959D02*
X121363000Y-112832959D01*
X117010000Y-112872959D02*
X121381000Y-112872959D01*
X117010000Y-112912959D02*
X121398000Y-112912959D01*
X117010000Y-112952959D02*
X121415000Y-112952959D01*
X117010000Y-112992959D02*
X121431000Y-112992959D01*
X117010000Y-113032959D02*
X121447000Y-113032959D01*
X117010000Y-113072959D02*
X121463000Y-113072959D01*
X117010000Y-113112959D02*
X121478000Y-113112959D01*
X117010000Y-113152959D02*
X121494000Y-113152959D01*
X117010000Y-113192959D02*
X121509000Y-113192959D01*
X117010000Y-113232959D02*
X121523000Y-113232959D01*
X117010000Y-113272959D02*
X121537000Y-113272959D01*
X117010000Y-113312959D02*
X121551000Y-113312959D01*
X117010000Y-113352959D02*
X121565000Y-113352959D01*
X117010000Y-113392959D02*
X121578000Y-113392959D01*
X117010000Y-113432959D02*
X121591000Y-113432959D01*
X117010000Y-113472959D02*
X121604000Y-113472959D01*
X117010000Y-113512959D02*
X121617000Y-113512959D01*
X117010000Y-113552959D02*
X121629000Y-113552959D01*
X117010000Y-113592959D02*
X121641000Y-113592959D01*
X117010000Y-113632959D02*
X121653000Y-113632959D01*
X117010000Y-113672959D02*
X121664000Y-113672959D01*
X117010000Y-113712959D02*
X121675000Y-113712959D01*
X117010000Y-113752959D02*
X121686000Y-113752959D01*
X117010000Y-113792959D02*
X121696000Y-113792959D01*
X117010000Y-113832959D02*
X121707000Y-113832959D01*
X117010000Y-113872959D02*
X121716000Y-113872959D01*
X117010000Y-113912959D02*
X121726000Y-113912959D01*
X117010000Y-113952959D02*
X121736000Y-113952959D01*
X117010000Y-113992959D02*
X121745000Y-113992959D01*
X117010000Y-114032959D02*
X121754000Y-114032959D01*
X117010000Y-114072959D02*
X121762000Y-114072959D01*
X117010000Y-114112959D02*
X121771000Y-114112959D01*
X117010000Y-114152959D02*
X121779000Y-114152959D01*
X117010000Y-114192959D02*
X121786000Y-114192959D01*
X117010000Y-114232959D02*
X121794000Y-114232959D01*
X117010000Y-114272959D02*
X121801000Y-114272959D01*
X117010000Y-114312959D02*
X121808000Y-114312959D01*
X121940000Y-115393959D02*
G75*
G02*
X109200000Y-115393959I-6370000J0D01*
G01*
X109200000Y-115393959D02*
G75*
G02*
X121940000Y-115393959I6370000J0D01*
G01*
%TO.C,Rg1*%
X101370000Y-104140000D02*
X102140000Y-104140000D01*
X102140000Y-102770000D02*
X102140000Y-105510000D01*
X102140000Y-105510000D02*
X108680000Y-105510000D01*
X108680000Y-102770000D02*
X102140000Y-102770000D01*
X108680000Y-105510000D02*
X108680000Y-102770000D01*
X109450000Y-104140000D02*
X108680000Y-104140000D01*
%TO.C,Rf2*%
X110260000Y-96520000D02*
X111030000Y-96520000D01*
X111030000Y-95150000D02*
X111030000Y-97890000D01*
X111030000Y-97890000D02*
X117570000Y-97890000D01*
X117570000Y-95150000D02*
X111030000Y-95150000D01*
X117570000Y-97890000D02*
X117570000Y-95150000D01*
X118340000Y-96520000D02*
X117570000Y-96520000D01*
%TO.C,RP1*%
X144550000Y-72390000D02*
X145320000Y-72390000D01*
X145320000Y-71020000D02*
X145320000Y-73760000D01*
X145320000Y-73760000D02*
X151860000Y-73760000D01*
X151860000Y-71020000D02*
X145320000Y-71020000D01*
X151860000Y-73760000D02*
X151860000Y-71020000D01*
X152630000Y-72390000D02*
X151860000Y-72390000D01*
%TD*%
M02*
